<?xml version="1.0" encoding="UTF-8" standalone="no"?>
<!-- Created with Inkscape (http://www.inkscape.org/) -->

<svg
   width="430"
   height="500"
   viewBox="0 0 113.77082 132.29165"
   version="1.1"
   id="svg5"
   xml:space="preserve"
   inkscape:version="1.2.2 (b0a8486541, 2022-12-01)"
   sodipodi:docname="balance.svg"
   xmlns:inkscape="http://www.inkscape.org/namespaces/inkscape"
   xmlns:sodipodi="http://sodipodi.sourceforge.net/DTD/sodipodi-0.dtd"
   xmlns:xlink="http://www.w3.org/1999/xlink"
   xmlns="http://www.w3.org/2000/svg"
   xmlns:svg="http://www.w3.org/2000/svg"><sodipodi:namedview
     id="namedview7"
     pagecolor="#ffffff"
     bordercolor="#000000"
     borderopacity="0.25"
     inkscape:showpageshadow="2"
     inkscape:pageopacity="0.0"
     inkscape:pagecheckerboard="true"
     inkscape:deskcolor="#d1d1d1"
     inkscape:document-units="px"
     showgrid="false"
     inkscape:zoom="1"
     inkscape:cx="81.5"
     inkscape:cy="346.5"
     inkscape:window-width="1438"
     inkscape:window-height="1236"
     inkscape:window-x="1568"
     inkscape:window-y="895"
     inkscape:window-maximized="0"
     inkscape:current-layer="layer1" /><defs
     id="defs2"><linearGradient
       inkscape:collect="always"
       id="linearGradient12677"><stop
         style="stop-color:#b76e79;stop-opacity:0.80259913;"
         offset="0"
         id="stop12673" /><stop
         style="stop-color:#553539;stop-opacity:0.80111855;"
         offset="1"
         id="stop12675" /></linearGradient><linearGradient
       inkscape:collect="always"
       id="linearGradient30203"><stop
         style="stop-color:#a650ad;stop-opacity:0.09944949;"
         offset="0"
         id="stop30199" /><stop
         style="stop-color:#2c4fc2;stop-opacity:1;"
         offset="0.99589056"
         id="stop30201" /></linearGradient><linearGradient
       inkscape:collect="always"
       id="linearGradient27091"><stop
         style="stop-color:#b76e79;stop-opacity:1;"
         offset="0"
         id="stop27087" /><stop
         style="stop-color:#553539;stop-opacity:1;"
         offset="1"
         id="stop27089" /></linearGradient><linearGradient
       inkscape:collect="always"
       id="linearGradient24067"><stop
         style="stop-color:#8000ff;stop-opacity:0;"
         offset="0"
         id="stop24063" /><stop
         style="stop-color:#8000ff;stop-opacity:0.73436666;"
         offset="0.53719085"
         id="stop24071" /><stop
         style="stop-color:#8000ff;stop-opacity:0;"
         offset="1"
         id="stop24065" /></linearGradient><linearGradient
       inkscape:collect="always"
       id="linearGradient8827"><stop
         style="stop-color:#793a7d;stop-opacity:1;"
         offset="0"
         id="stop8823" /><stop
         style="stop-color:#162559;stop-opacity:1;"
         offset="1"
         id="stop8825" /></linearGradient><linearGradient
       inkscape:collect="always"
       xlink:href="#linearGradient8827"
       id="linearGradient645"
       gradientUnits="userSpaceOnUse"
       x1="50.451668"
       y1="113.57504"
       x2="102.48727"
       y2="-11.821186"
       gradientTransform="matrix(1.1467236,0,0,1.1486656,-21.410904,-14.829132)" /><linearGradient
       inkscape:collect="always"
       xlink:href="#linearGradient24067"
       id="linearGradient647"
       gradientUnits="userSpaceOnUse"
       x1="38.189415"
       y1="57.999947"
       x2="93.867851"
       y2="81.673553"
       gradientTransform="matrix(1.1467236,0,0,1.1486656,-21.410904,-14.829132)" /><radialGradient
       inkscape:collect="always"
       xlink:href="#linearGradient27091"
       id="radialGradient649"
       gradientUnits="userSpaceOnUse"
       gradientTransform="matrix(0.64806895,0,0,0.64916647,20.806171,3.6106783)"
       cx="85.187004"
       cy="45.643681"
       fx="85.187004"
       fy="45.643681"
       r="6.7192616" /><radialGradient
       inkscape:collect="always"
       xlink:href="#linearGradient30203"
       id="radialGradient651"
       gradientUnits="userSpaceOnUse"
       gradientTransform="matrix(1.1467236,0,0,1.3333976,-21.410907,-27.851979)"
       cx="68.278275"
       cy="70.494888"
       fx="68.278275"
       fy="70.494888"
       r="49.606907" /><radialGradient
       inkscape:collect="always"
       xlink:href="#linearGradient12677"
       id="radialGradient653"
       gradientUnits="userSpaceOnUse"
       gradientTransform="matrix(1.1467236,0,0,1.1486656,-76.622778,5.0259496)"
       cx="89.240295"
       cy="42.263607"
       fx="89.240295"
       fy="42.263607"
       r="6.7192616" /></defs><g
     inkscape:label="Layer 1"
     inkscape:groupmode="layer"
     id="layer1"><path
       style="fill:url(#linearGradient645);fill-opacity:1;stroke:none;stroke-width:0.30366;stroke-linecap:round;stroke-linejoin:round;stroke-dasharray:none;stroke-opacity:1;paint-order:fill markers stroke"
       d="M 59.852165,132.29165 18.88039,102.06347 C 19.473112,99.847655 19.929872,95.708072 19.624304,90.57994 19.839647,84.716728 16.306649,78.376202 13.513976,74.280992 1.6620372,62.415953 0.51125417,51.841925 -1.0832208e-6,40.914912 -1.0832208e-6,24.13568 19.415096,2.6082424 46.452031,0.82782798 61.693881,-1.3805425 76.279362,0.24630683 88.970546,12.941705 c 3.890643,4.071307 8.160884,12.286846 10.739946,21.02138 0.867368,3.797525 0.0069,5.901176 -0.205585,8.640694 -1.209529,0.373031 15.595113,19.660596 14.181383,22.113392 -1.41373,2.452797 -7.27616,3.545326 -7.27616,3.545326 -0.88694,3.080747 -0.83736,6.534699 0.70658,7.978059 0.92309,0.924648 -1.5119,3.662393 -2.64191,4.370325 2.40446,0.241374 3.79734,3.203646 3.79734,3.992242 0,0.86377 -2.86401,2.374761 -3.22534,4.256866 2.18056,3.225806 1.65215,5.986332 1.38335,8.791451 -1.78273,3.58687 -4.48913,5.6975 -8.176972,6.65016 -6.895066,0.60742 -16.010922,-0.77719 -20.653121,1.85105 -9.675923,7.313 -12.569434,17.15139 -17.747892,26.139 z"
       id="path577"
       sodipodi:nodetypes="ccccccccczccccccccc" /><ellipse
       style="fill:#b6ddff;fill-opacity:1;stroke:none;stroke-width:0.30366;stroke-linecap:round;stroke-linejoin:round;stroke-dasharray:none;stroke-opacity:1;paint-order:fill markers stroke"
       id="circle579"
       cx="86.607277"
       cy="42.181942"
       rx="0.60559952"
       ry="0.60662508" /><path
       id="path581"
       style="fill:url(#linearGradient647);fill-opacity:1;stroke:none;stroke-width:0.30366;stroke-linecap:round;stroke-linejoin:round;stroke-dasharray:none;stroke-opacity:1;paint-order:fill markers stroke"
       d="M 57.740777,0.00347777 C 54.031707,-0.03685188 50.262477,0.27588152 46.452019,0.82797386 42.977255,1.0567915 39.62934,1.6133866 36.431393,2.4425371 31.0169,12.52292 46.125566,18.056205 45.054109,23.729244 c -1.146341,6.069524 -5.740781,5.628045 -7.772948,9.803721 -2.032168,4.175676 -0.840612,10.550076 -3.583366,14.927584 -2.742756,4.377508 -10.156183,3.729651 -12.09586,9.915316 -1.939678,6.185663 5.992401,15.26912 6.330593,22.364072 0.338193,7.094951 -2.115209,12.227174 -3.479071,19.056592 -0.335423,1.679601 -1.03611,3.342081 -1.840572,5.021171 l 12.518374,9.23507 c 0.285679,-0.55089 0.529675,-1.12036 0.690364,-1.71311 0.961747,-3.54763 0.762759,-11.30411 1.008581,-12.532446 0.245822,-1.228334 1.1108,-7.391196 3.09626,-10.85675 1.985459,-3.465554 7.30139,-5.446351 8.757232,-9.160864 1.455843,-3.714512 -1.229537,-6.381113 -0.174812,-11.258608 1.054724,-4.877496 7.558882,-12.056405 7.980945,-16.887024 C 56.911892,46.81335 53.151576,46.992852 53.742009,41.603405 54.33244,36.213958 62.233693,29.489595 64.060112,22.046418 65.667567,15.495573 59.044525,5.8344696 62.12295,0.2272608 60.672432,0.09331031 59.211481,0.01946949 57.740777,0.00347777 Z M 89.306636,13.312937 c -1.961389,4.034405 -6.566691,7.525178 -7.890871,11.42066 -1.974142,5.807542 -0.66097,13.768121 -3.854179,16.719631 -3.19321,2.95151 -6.763419,-1.392794 -8.84375,1.30827 -2.080331,2.701064 2.833984,7.967293 1.261022,11.444402 -1.572959,3.47711 -6.747612,1.819885 -9.320781,6.524734 -2.573169,4.704849 1.171596,15.775023 -0.86162,20.779188 -2.033215,5.004166 -5.839759,4.711282 -7.748651,8.646816 -1.908894,3.935535 -0.466157,10.821942 -2.514934,14.414722 -2.048778,3.59279 -5.269116,3.5298 -7.743911,6.6114 -1.072735,1.33576 -1.870745,3.60463 -2.664858,5.81599 l 19.256667,14.20696 c 4.477235,-5.98534 6.843226,-14.53161 8.468051,-19.1201 2.438938,-6.88754 -1.346729,-7.52899 1.216579,-13.260787 2.563309,-5.731788 14.703474,-11.994082 16.593586,-17.817771 1.890113,-5.823689 -2.344653,-8.095524 -1.503982,-12.283738 0.840671,-4.188212 5.747881,-7.167206 6.562887,-11.512071 0.815008,-4.344865 -2.456367,-9.596378 -1.945459,-13.12426 0.510905,-3.52788 0.932366,-0.814361 3.419812,-7.362288 0.895974,-2.358546 3.608998,-5.516669 6.281414,-9.201822 C 95.099356,21.59075 92.120833,16.41124 89.306636,13.312937 Z" /><ellipse
       style="fill:url(#radialGradient649);fill-opacity:1;stroke:none;stroke-width:0.171614;stroke-linecap:round;stroke-linejoin:round;stroke-dasharray:none;stroke-opacity:1;paint-order:fill markers stroke"
       id="circle583"
       cx="77.356438"
       cy="31.965733"
       rx="4.3545451"
       ry="4.3619194" /><path
       style="fill:url(#radialGradient651);fill-opacity:1;stroke:none;stroke-width:0.30366;stroke-linecap:round;stroke-linejoin:round;stroke-dasharray:none;stroke-opacity:1;paint-order:fill markers stroke"
       d="M 59.85216,132.29146 18.88039,102.06328 c 0.59272,-2.215822 1.04948,-6.355402 0.74391,-11.483532 0.21534,-5.86321 -3.31765,-12.20374 -6.11033,-16.29895 C 1.66203,62.415758 0.51125,51.841728 0,40.914718 0,24.135488 19.41509,2.6080485 46.45203,0.82763854 61.69388,-1.3807415 76.27936,0.24610854 88.97054,12.941508 c 3.89065,4.07131 8.16089,12.28685 10.73995,21.02138 0.86737,3.79753 0.007,5.90118 -0.20559,8.6407 -1.20953,0.37303 15.59512,19.66059 14.18139,22.11339 -1.41373,2.4528 -7.27616,3.54533 -7.27616,3.54533 -0.88694,3.08074 -0.83736,6.5347 0.70658,7.97806 0.92309,0.92464 -1.5119,3.66239 -2.64191,4.37032 2.40446,0.24137 3.79734,3.20365 3.79734,3.99224 0,0.86377 -2.86401,2.37476 -3.22534,4.25687 2.18056,3.2258 1.65215,5.98633 1.38335,8.79145 -1.78273,3.586872 -4.48913,5.697502 -8.17698,6.650162 -6.89506,0.60742 -16.01092,-0.77719 -20.65312,1.85105 -9.67592,7.313 -12.56943,17.15139 -17.74789,26.139 z"
       id="path585"
       sodipodi:nodetypes="ccccccccczccccccccc" /><ellipse
       style="fill:#b6ddff;fill-opacity:1;stroke:none;stroke-width:0.30366;stroke-linecap:round;stroke-linejoin:round;stroke-dasharray:none;stroke-opacity:1;paint-order:fill markers stroke"
       id="circle587"
       cx="15.230079"
       cy="45.094784"
       rx="0.60559952"
       ry="0.60662508" /><ellipse
       style="fill:#b6ddff;fill-opacity:1;stroke:none;stroke-width:0.30366;stroke-linecap:round;stroke-linejoin:round;stroke-dasharray:none;stroke-opacity:1;paint-order:fill markers stroke"
       id="circle589"
       cx="13.790359"
       cy="23.946886"
       rx="0.60559952"
       ry="0.60662508" /><ellipse
       style="fill:#b6ddff;fill-opacity:1;stroke:none;stroke-width:0.30366;stroke-linecap:round;stroke-linejoin:round;stroke-dasharray:none;stroke-opacity:1;paint-order:fill markers stroke"
       id="circle591"
       cx="31.994591"
       cy="30.025238"
       rx="0.60559952"
       ry="0.60662508" /><ellipse
       style="fill:#b6ddff;fill-opacity:1;stroke:none;stroke-width:0.30366;stroke-linecap:round;stroke-linejoin:round;stroke-dasharray:none;stroke-opacity:1;paint-order:fill markers stroke"
       id="circle593"
       cx="56.266899"
       cy="78.652061"
       rx="0.60559952"
       ry="0.60662508" /><ellipse
       style="fill:#b6ddff;fill-opacity:1;stroke:none;stroke-width:0.30366;stroke-linecap:round;stroke-linejoin:round;stroke-dasharray:none;stroke-opacity:1;paint-order:fill markers stroke"
       id="circle595"
       cx="68.403053"
       cy="11.790175"
       rx="0.60559952"
       ry="0.60662508" /><ellipse
       style="fill:#b6ddff;fill-opacity:1;stroke:none;stroke-width:0.30366;stroke-linecap:round;stroke-linejoin:round;stroke-dasharray:none;stroke-opacity:1;paint-order:fill markers stroke"
       id="circle597"
       cx="92.675354"
       cy="96.887115"
       rx="0.60559952"
       ry="0.60662508" /><ellipse
       style="fill:#b6ddff;fill-opacity:1;stroke:none;stroke-width:0.30366;stroke-linecap:round;stroke-linejoin:round;stroke-dasharray:none;stroke-opacity:1;paint-order:fill markers stroke"
       id="circle599"
       cx="18.367899"
       cy="45.590157"
       rx="0.26605943"
       ry="0.26651001" /><ellipse
       style="fill:#b6ddff;fill-opacity:1;stroke:none;stroke-width:0.30366;stroke-linecap:round;stroke-linejoin:round;stroke-dasharray:none;stroke-opacity:1;paint-order:fill markers stroke"
       id="circle601"
       cx="30.504051"
       cy="15.198388"
       rx="0.26605943"
       ry="0.26651001" /><ellipse
       style="fill:#b6ddff;fill-opacity:1;stroke:none;stroke-width:0.30366;stroke-linecap:round;stroke-linejoin:round;stroke-dasharray:none;stroke-opacity:1;paint-order:fill markers stroke"
       id="circle603"
       cx="24.435976"
       cy="33.433449"
       rx="0.26605943"
       ry="0.26651001" /><ellipse
       style="fill:#b6ddff;fill-opacity:1;stroke:none;stroke-width:0.30366;stroke-linecap:round;stroke-linejoin:round;stroke-dasharray:none;stroke-opacity:1;paint-order:fill markers stroke"
       id="circle605"
       cx="18.367899"
       cy="69.903572"
       rx="0.26605943"
       ry="0.26651001" /><ellipse
       style="fill:#b6ddff;fill-opacity:1;stroke:none;stroke-width:0.30366;stroke-linecap:round;stroke-linejoin:round;stroke-dasharray:none;stroke-opacity:1;paint-order:fill markers stroke"
       id="circle607"
       cx="42.640205"
       cy="57.746864"
       rx="0.26605943"
       ry="0.26651001" /><ellipse
       style="fill:#b6ddff;fill-opacity:1;stroke:none;stroke-width:0.30366;stroke-linecap:round;stroke-linejoin:round;stroke-dasharray:none;stroke-opacity:1;paint-order:fill markers stroke"
       id="circle609"
       cx="42.640205"
       cy="100.29534"
       rx="0.26605943"
       ry="0.26651001" /><ellipse
       style="fill:#b6ddff;fill-opacity:1;stroke:none;stroke-width:0.30366;stroke-linecap:round;stroke-linejoin:round;stroke-dasharray:none;stroke-opacity:1;paint-order:fill markers stroke"
       id="circle611"
       cx="66.912506"
       cy="94.216988"
       rx="0.26605943"
       ry="0.26651001" /><ellipse
       style="fill:#b6ddff;fill-opacity:1;stroke:none;stroke-width:0.30366;stroke-linecap:round;stroke-linejoin:round;stroke-dasharray:none;stroke-opacity:1;paint-order:fill markers stroke"
       id="circle613"
       cx="66.912506"
       cy="82.060287"
       rx="0.26605943"
       ry="0.26651001" /><ellipse
       style="fill:#b6ddff;fill-opacity:1;stroke:none;stroke-width:0.30366;stroke-linecap:round;stroke-linejoin:round;stroke-dasharray:none;stroke-opacity:1;paint-order:fill markers stroke"
       id="circle615"
       cx="72.980583"
       cy="75.981934"
       rx="0.26605943"
       ry="0.26651001" /><ellipse
       style="fill:#b6ddff;fill-opacity:1;stroke:none;stroke-width:0.30366;stroke-linecap:round;stroke-linejoin:round;stroke-dasharray:none;stroke-opacity:1;paint-order:fill markers stroke"
       id="circle617"
       cx="60.844433"
       cy="57.746872"
       rx="0.26605943"
       ry="0.26651001" /><ellipse
       style="fill:#b6ddff;fill-opacity:1;stroke:none;stroke-width:0.30366;stroke-linecap:round;stroke-linejoin:round;stroke-dasharray:none;stroke-opacity:1;paint-order:fill markers stroke"
       id="circle619"
       cx="66.912506"
       cy="39.511814"
       rx="0.26605943"
       ry="0.26651001" /><ellipse
       style="fill:#b6ddff;fill-opacity:1;stroke:none;stroke-width:0.30366;stroke-linecap:round;stroke-linejoin:round;stroke-dasharray:none;stroke-opacity:1;paint-order:fill markers stroke"
       id="circle621"
       cx="79.04866"
       cy="27.35511"
       rx="0.26605943"
       ry="0.26651001" /><ellipse
       style="fill:#b6ddff;fill-opacity:1;stroke:none;stroke-width:0.30366;stroke-linecap:round;stroke-linejoin:round;stroke-dasharray:none;stroke-opacity:1;paint-order:fill markers stroke"
       id="circle623"
       cx="52.955933"
       cy="15.198401"
       rx="0.26605943"
       ry="0.26651001" /><ellipse
       style="fill:#b6ddff;fill-opacity:1;stroke:none;stroke-width:0.30366;stroke-linecap:round;stroke-linejoin:round;stroke-dasharray:none;stroke-opacity:1;paint-order:fill markers stroke"
       id="circle625"
       cx="101.50054"
       cy="88.138634"
       rx="0.26605943"
       ry="0.26651001" /><ellipse
       style="fill:#b6ddff;fill-opacity:1;stroke:none;stroke-width:0.30366;stroke-linecap:round;stroke-linejoin:round;stroke-dasharray:none;stroke-opacity:1;paint-order:fill markers stroke"
       id="circle627"
       cx="89.364388"
       cy="69.90358"
       rx="0.26605943"
       ry="0.26651001" /><ellipse
       style="fill:#b6ddff;fill-opacity:1;stroke:none;stroke-width:0.30366;stroke-linecap:round;stroke-linejoin:round;stroke-dasharray:none;stroke-opacity:1;paint-order:fill markers stroke"
       id="circle629"
       cx="95.432465"
       cy="51.668522"
       rx="0.26605943"
       ry="0.26651001" /><ellipse
       style="fill:#b6ddff;fill-opacity:1;stroke:none;stroke-width:0.30366;stroke-linecap:round;stroke-linejoin:round;stroke-dasharray:none;stroke-opacity:1;paint-order:fill markers stroke"
       id="circle631"
       cx="101.50054"
       cy="57.746872"
       rx="0.26605943"
       ry="0.26651001" /><ellipse
       style="fill:#b6ddff;fill-opacity:1;stroke:none;stroke-width:0.30366;stroke-linecap:round;stroke-linejoin:round;stroke-dasharray:none;stroke-opacity:1;paint-order:fill markers stroke"
       id="circle633"
       cx="77.228233"
       cy="100.29534"
       rx="0.26605943"
       ry="0.26651001" /><ellipse
       style="fill:#b6ddff;fill-opacity:1;stroke:none;stroke-width:0.30366;stroke-linecap:round;stroke-linejoin:round;stroke-dasharray:none;stroke-opacity:1;paint-order:fill markers stroke"
       id="circle635"
       cx="28.683626"
       cy="100.29534"
       rx="0.26605943"
       ry="0.26651001" /><ellipse
       style="fill:#b6ddff;fill-opacity:1;stroke:none;stroke-width:0.30366;stroke-linecap:round;stroke-linejoin:round;stroke-dasharray:none;stroke-opacity:1;paint-order:fill markers stroke"
       id="circle637"
       cx="22.615551"
       cy="86.922966"
       rx="0.26605943"
       ry="0.26651001" /><ellipse
       style="opacity:1;fill:url(#radialGradient653);fill-opacity:1;stroke:none;stroke-width:0.30366;stroke-linecap:round;stroke-linejoin:round;stroke-dasharray:none;stroke-opacity:1;paint-order:fill markers stroke"
       id="circle639"
       cx="23.439917"
       cy="55.198704"
       rx="7.7051358"
       ry="7.7181849" /><g
       id="g14668"
       transform="translate(-1.7080261,-6.4486247)"><path
         style="opacity:1;fill:#132337;fill-opacity:1;stroke:none;stroke-width:0.529167;stroke-linecap:round;stroke-linejoin:round;stroke-opacity:1;paint-order:fill markers stroke"
         d="m 51.929624,73.024229 c -1.137398,-0.192818 -23.946037,6.860124 -25.288005,10.111383 -1.341967,3.251258 0.249467,5.578347 2.018223,8.205488 1.768756,2.627141 8.725191,3.335164 15.179383,2.836503 6.454193,-0.498662 15.225959,-5.485129 15.225959,-5.485129 0,0 11.530779,5.809703 17.564332,5.66674 C 82.66307,94.216251 89.08558,92.940337 90.33391,89.397 91.58224,85.853663 91.349806,82.083632 88.331028,80.502488 85.31225,78.921344 66.75299,73.414694 66.75299,73.414694 Z"
         id="path10651"
         sodipodi:nodetypes="czzzczzzcc" /><path
         style="opacity:1;fill:#000000;fill-opacity:1;stroke:none;stroke-width:0.529167;stroke-linecap:round;stroke-linejoin:round;stroke-opacity:1;paint-order:fill markers stroke"
         d="m 66.813966,45.715467 c 2.936866,-4.290837 1.329119,-3.934227 1.231675,-7.693441 -0.09744,-3.759213 3.612034,-10.176842 1.718468,-13.895758 -1.893565,-3.718915 -7.345298,-6.536675 -11.682456,-6.01977 -4.337157,0.516906 -8.934733,4.937598 -9.85006,8.611909 -0.915326,3.674312 2.098234,9.208066 2.587454,12.487026 0.48922,3.278961 -3.756434,1.446953 -0.404028,5.580553 3.352406,4.133601 13.462081,5.220319 16.398947,0.929481 z"
         id="path10647"
         sodipodi:nodetypes="zzzzzzzz" /><path
         style="opacity:1;fill:#057dcd;fill-opacity:1;stroke:none;stroke-width:0.529167;stroke-linecap:round;stroke-linejoin:round;stroke-opacity:1;paint-order:fill markers stroke"
         d="m 46.8466,50.17747 c 0,0 4.377788,9.234273 4.1013,13.5524 -0.276488,4.318127 -3.402231,10.72998 -3.402231,10.72998 7.220585,1.356625 14.486662,1.897458 21.891427,-0.0487 0,0 -2.306887,-6.326028 -2.480777,-10.79099 -0.17389,-4.464962 3.624599,-14.230752 3.624599,-14.230752 z"
         id="path10645"
         sodipodi:nodetypes="czcczcc" /><path
         id="path10641"
         style="opacity:1;fill:#3f252a;fill-opacity:1;stroke:none;stroke-width:0.529167;stroke-linecap:round;stroke-linejoin:round;stroke-opacity:1;paint-order:fill markers stroke"
         d="m 60.661406,30.964514 -3.447851,0.05219 c 0,0 -0.454102,0.737097 -0.38964,4.155301 0.06446,3.418205 -16.601028,6.741273 -17.363796,21.251414 -0.762768,14.51014 10.742613,19.10501 19.970355,18.893934 C 68.658216,75.106282 77.071782,72.919851 78.660305,58.641891 80.248829,44.363932 61.257681,36.710577 60.871729,35.590071 60.485777,34.469565 60.661406,30.964514 60.661406,30.964514 Z m -0.986503,13.92163 C 66.091681,44.870505 74.398542,53.109615 74.234736,60.14981 74.07093,67.190006 65.695426,72.002791 59.168991,72.274649 52.642557,72.546508 44.765539,66.157431 43.954934,61.166802 43.031277,54.857021 51.082662,45.89105 59.674903,44.886144 Z" /><ellipse
         style="opacity:1;fill:#4c2c31;fill-opacity:1;stroke:none;stroke-width:0.614174;stroke-linecap:round;stroke-linejoin:round;stroke-opacity:1;paint-order:fill markers stroke"
         id="path10585"
         cx="58.737171"
         cy="27.999453"
         rx="5.5927863"
         ry="7.8636985" /><path
         style="opacity:1;fill:#000000;fill-opacity:1;stroke:none;stroke-width:0.529167;stroke-linecap:round;stroke-linejoin:round;stroke-opacity:1;paint-order:fill markers stroke"
         d="m 52.730348,20.179095 c -0.861599,3.327657 3.02082,3.87242 6.647915,4.970319 3.627094,1.0979 5.377641,2.385035 8.452453,0.511677 3.074813,-1.873358 -0.233469,-6.730046 -3.8632,-8.37594 -3.62973,-1.645894 -10.375569,-0.433713 -11.237168,2.893944 z"
         id="path10649"
         sodipodi:nodetypes="zzzzz" /><path
         style="opacity:1;fill:#057dcd;fill-opacity:1;stroke:none;stroke-width:0.529167;stroke-linecap:round;stroke-linejoin:round;stroke-opacity:1;paint-order:fill markers stroke"
         d="m 53.030088,38.087786 c 1.600292,2.882279 3.57442,4.870036 5.847737,6.141887 2.594435,-1.38201 4.478009,-3.498318 5.553471,-6.449379 5.021818,2.094425 8.413193,5.377137 11.394685,8.958576 l -4.521851,5.667951 -2.01777,-2.196472 -19.984321,0.141996 -2.553945,3.138098 -6.023051,-5.123102 c 3.873001,-3.994701 8.162747,-7.87193 12.305045,-10.279555 z"
         id="path13293"
         sodipodi:nodetypes="cccccccccc" /><ellipse
         style="opacity:1;fill:#3f252a;fill-opacity:1;stroke:none;stroke-width:0.529167;stroke-linecap:round;stroke-linejoin:round;stroke-opacity:1;paint-order:fill markers stroke"
         id="path13347"
         cx="59.314896"
         cy="73.252625"
         rx="7.2495728"
         ry="4.0128036" /></g></g></svg>
