<?xml version="1.0" encoding="UTF-8" standalone="no"?>
<svg
   width="524.67004"
   height="341.19113"
   viewBox="0 0 524.67004 341.19113"
   version="1.1"
   id="svg48"
   sodipodi:docname="hearts.svg"
   inkscape:version="1.2.2 (b0a8486541, 2022-12-01)"
   xmlns:inkscape="http://www.inkscape.org/namespaces/inkscape"
   xmlns:sodipodi="http://sodipodi.sourceforge.net/DTD/sodipodi-0.dtd"
   xmlns="http://www.w3.org/2000/svg"
   xmlns:svg="http://www.w3.org/2000/svg">
  <defs
     id="defs52" />
  <sodipodi:namedview
     id="namedview50"
     pagecolor="#ffffff"
     bordercolor="#000000"
     borderopacity="0.25"
     inkscape:showpageshadow="2"
     inkscape:pageopacity="0.0"
     inkscape:pagecheckerboard="0"
     inkscape:deskcolor="#d1d1d1"
     showgrid="true"
     inkscape:zoom="0.62134289"
     inkscape:cx="539.95951"
     inkscape:cy="192.32537"
     inkscape:window-width="1443"
     inkscape:window-height="1236"
     inkscape:window-x="2076"
     inkscape:window-y="846"
     inkscape:window-maximized="0"
     inkscape:current-layer="svg48" />
  <rect
     style="fill:#f9a826;fill-opacity:1;stroke-width:3.21291;stroke-linecap:round;stroke-linejoin:round;paint-order:fill markers stroke"
     id="rect4158"
     width="346.58038"
     height="242.20663"
     x="52.726959"
     y="129.73293"
     ry="106.6372"
     transform="rotate(-20.765663)" />
  <polygon
     points="102.27977,291.05829 94.07919,300.7165 98.01545,321.09568 102.52261,337.19269 129.85255,323.31263 151.85851,321.32065 146.06358,297.49711 116.44513,300.7165 "
     fill="#a0616a"
     id="polygon2" />
  <polygon
     points="137.69316,298.78486 149.28299,323.89615 227.8363,302.00425 349.52957,336.77378 332.7887,254.35717 296.08755,263.37146 224.61691,262.08371 "
     fill="#2f2e41"
     id="polygon4" />
  <path
     d="m 100.05315,299.8444 14.20534,-1.10577 -18.06862,-38.1709 c 0,0 -8.37044,-2.95575 -9.6582,6.24866 -1.28776,9.20444 9.69613,71.52731 12.91553,71.52731 3.2194,0 14.02135,-6.30206 14.02135,-6.30206 l -15.99093,-30.26562 2.57552,-1.93164 c 0,0 2e-5,3e-5 2e-5,3e-5 z"
     fill="#2f2e41"
     id="path6" />
  <path
     d="m 282.15828,43.740025 c -1.42984,0.15384 -2.98969,0.38474 -4.64886,0.7226 -7.03516,1.43253 -7.18118,6.20959 -7.11951,7.30475 l -0.0478,-0.0298 c -0.7074,1.13477 -1.15045,2.28314 -1.41821,3.367 l -0.32217,-14.64099 c 0.20831,-0.43436 0.39786,-0.92685 0.55588,-1.43167 0.52661,1.6217 1.38986,3.15378 2.134,3.05222 0.96762,-0.13205 1.38947,-2.97916 1.20898,-5.00247 1.23047,1.58466 3.3013,3.27942 4.08252,2.75684 0.62424,-0.41757 0.25409,-2.13672 -0.42743,-3.69965 1.42007,0.85553 2.9928,1.41785 3.48083,0.87457 0.66599,-0.74133 -0.92984,-3.27087 -2.40155,-4.68289 1.96997,0.18372 4.47543,-0.13016 4.63968,-1.02673 0.13535,-0.73874 -1.3558,-1.6709 -2.95181,-2.27087 1.60309,-0.42267 3.10217,-1.15918 3.05246,-1.88776 -0.059,-0.86551 -2.28467,-1.44547 -4.20471,-1.53369 1.44821,-1.133 2.77887,-2.69922 2.37195,-3.40756 -0.37411,-0.65121 -2.11447,-0.39896 -3.72015,0.17459 0.95023,-1.35852 1.61829,-2.88934 1.1095,-3.41324 -0.63376,-0.65259 -2.88309,0.47379 -4.41815,1.71884 0.29883,-1.93967 0.14777,-4.38803 -0.72223,-4.60956 -0.72781,-0.18533 -1.75931,1.23892 -2.46652,2.79041 -0.31256,-1.62814 -0.94531,-3.17389 -1.6756,-3.17389 -1.04031,0 -1.88367,3.1366 -1.88367,5.18008 0,0.11551 0.003,0.22424 0.008,0.32812 -0.10443,-0.12106 -0.22409,-0.24753 -0.36057,-0.38007 -1.46597,-1.42368 -4.30362,-3.00388 -5.02841,-2.2576 -0.50876,0.5239 0.15927,2.05472 1.1095,3.41324 -1.60568,-0.57355 -3.34604,-0.82581 -3.72015,-0.17459 -0.50269,0.87503 1.64603,3.05936 3.39258,4.11865 -0.10498,-0.0127 -0.2153,-0.0233 -0.3327,-0.0313 -2.03876,-0.1391 -5.22546,0.48877 -5.2963,1.52667 -0.0497,0.72858 1.44937,1.46509 3.05246,1.88776 -1.59601,0.59995 -3.08716,1.53214 -2.95181,2.27087 0.16425,0.89658 2.66971,1.21045 4.63968,1.02673 -1.47171,1.41202 -3.06754,3.94156 -2.40155,4.68289 0.48804,0.54327 2.06079,-0.019 3.48083,-0.87457 -0.68152,1.56293 -1.05167,3.28207 -0.42743,3.69965 0.82498,0.55185 3.08749,-1.3688 4.28036,-3.02148 -0.12155,2.02185 0.36224,4.79944 1.32214,4.90906 0.40143,0.0458 0.82678,-0.38226 1.21069,-1.04144 l -1.08725,15.73734 c -0.25415,1.83273 1.37152,3.02869 1.51682,3.7836 l 0.2345,10.65707 c -0.26465,-0.75903 -0.62115,-1.53583 -1.10168,-2.30667 l -0.0478,0.0298 c 0.0616,-1.09531 -0.0845,-5.87219 -7.11951,-7.30472 -1.65921,-0.33786 -3.21902,-0.56876 -4.6489,-0.7226 -1.68781,-0.18161 -2.34616,2.12881 -0.82144,2.87506 2.20813,1.08075 4.28525,2.44241 5.36789,4.05487 2.76794,4.12253 6.59241,1.73947 7.13617,1.36948 0.60736,1.01105 1.00562,2.02963 1.25714,2.99884 l 0.12454,5.65955 c -0.0305,0.13385 -0.0516,0.2088 -0.0533,0.21442 l 0.0583,0.0171 0.30139,13.696618 2.79578,-0.0225 -1,-13.999998 c 0.16803,-0.75522 0.68503,-3.32803 0,-6 l -1,-11 v 0 c -0.002,-0.008 0.0568,0.28879 0,0 l -1.30444,-4.3222 c 0.18967,-1.33716 0.62991,-2.84119 1.52393,-4.32944 0.54376,0.37 4.36823,2.75305 7.13617,-1.36948 1.08264,-1.61249 3.15979,-2.97415 5.36789,-4.05487 1.52472,-0.74625 0.86636,-3.05664 -0.82144,-2.87506 h 9e-5 z m -12.77139,32.4057 -0.0527,-2.39529 c 0.10629,0.90567 0.10092,1.72314 0.0527,2.39529 z"
     fill="#f2f2f2"
     id="path8" />
  <polygon
     points="374.23984,153.04311 382.61026,182.66155 346.55301,177.51052 353.63568,153.68697 "
     fill="#a0616a"
     id="polygon12" />
  <polygon
     points="374.23984,153.04311 382.61026,182.66155 346.55301,177.51052 353.63568,153.68697 "
     isolation="isolate"
     opacity="0.1"
     id="polygon14" />
  <path
     d="m 378.18222,174.19414 -33.48175,-1.28777 -10.3812,21.34502 -14.76602,85.52678 82.77445,28.021 c 0,0 5.15103,-105.59627 -6.43881,-120.4055 -11.58984,-14.80923 -17.7067,-13.19952 -17.7067,-13.19952 h 3e-5 z"
     fill="#e6e6e6"
     id="path16"
     sodipodi:nodetypes="cccccsccc" />
  <path
     id="uuid-254ec3aa-232a-4bd5-bde7-2c67cbebf779-57"
     d="m 280.12268,100.1487 c -1.39569,-7.45355 -6.37283,-12.77514 -11.11618,-11.88614 -4.74335,0.889 -7.45593,7.65118 -6.05875,15.1072 0.51727,2.98603 1.7421,5.80477 3.57205,8.22038 l 6.31238,31.50632 12.45273,-2.52798 -5.51675,-31.46108 c 0.83194,-2.91508 0.95352,-5.98704 0.35452,-8.9587 z"
     fill="#a0616a" />
  <polygon
     points="285.64078,201.97655 363.04163,212.16091 373.16721,182.77419 304.78848,169.29909 285.57205,111.50288 264.03894,116.59649 "
     fill="#e6e6e6"
     id="polygon19" />
  <path
     d="m 398.46442,296.20936 c 0,0 12.87759,30.26236 -1.28775,37.34503 -14.16534,7.08267 -52.96542,12.87759 -62.53998,0 -9.57456,-12.87759 -12.79395,-72.1145 -12.79395,-72.1145 l -30.90622,43.13995 -17.38477,-10.94595 c 0,0 20.60416,-72.75839 37.98889,-76.62167 17.38477,-3.86328 63.74408,42.49606 63.74408,42.49606 l 23.17966,36.70114 3e-5,-6e-5 z"
     fill="#2f2e41"
     id="path27" />
  <polygon
     points="249.08434,312.9502 251.01598,329.69108 286.42935,325.82779 290.93652,316.81348 289.64877,309.08695 292.22427,296.85321 281.27832,289.77054 267.75684,303.29203 "
     fill="#a0616a"
     id="polygon29" />
  <path
     d="m 253.59151,323.25229 -1.10577,-14.20535 -38.17088,18.06863 c 0,0 -2.95576,8.37045 6.24867,9.6582 9.20443,1.28775 70.373,1.28775 70.373,-1.93164 0,-3.21939 1.67307,-19.70169 1.67307,-19.70169 l -37.08646,10.68738 -1.93164,-2.57553 h 2e-5 z"
     fill="#2f2e41"
     id="path31" />
  <path
     id="uuid-ed551467-fb37-4177-898a-a0ef2a16f86a-58"
     d="m 281.73056,274.90503 c -7.54608,0.74829 -13.2767,5.24844 -12.79968,10.05075 0.47702,4.80231 6.98035,8.0874 14.52902,7.33783 3.0195,-0.25806 5.93329,-1.2355 8.49756,-2.85052 l 31.93304,-3.57437 -1.44568,-12.62424 -31.8194,2.78561 c -2.83255,-1.08002 -5.88263,-1.46582 -8.89487,-1.12506 z"
     fill="#a0616a" />
  <polygon
     points="383.65518,278.18073 400.4704,201.94515 372.06537,189.32532 352.74896,256.28879 293.51205,270.45417 296.73145,292.34607 "
     fill="#e6e6e6"
     id="polygon34" />
  <g
     id="g46">
    <circle
       cx="361.32007"
       cy="133.45528"
       r="27.36301"
       fill="#a0616a"
       id="circle40" />
    <path
       d="M363.50388,96.66762c-.79178,.46219-1.85233-.23709-2.10623-1.11804-.25388-.88095,.04187-1.81629,.33514-2.68492,.49213-1.45761,.98425-2.91521,1.47638-4.37282,1.04709-3.1013,2.15839-6.31098,4.42609-8.67147,3.42276-3.56279,8.8623-4.46914,13.75897-3.81252,6.2883,.84323,12.49271,4.24828,15.41656,9.87898,2.92389,5.6307,1.67908,13.48753-3.60419,17.00052,7.52979,8.6304,10.15457,18.24868,9.74011,29.69463-.41443,11.44595-12.88773,21.97997-21.02197,30.04318-1.81653-1.10115-3.46796-6.26163-2.46902-8.13631,.99893-1.87469-.43231-4.04657,.80481-5.77336s2.27216,1.02277,1.02145-.69421c-.78922-1.08345,2.29108-3.57597,1.11795-4.22446-5.67422-3.13651-7.5614-10.20917-11.12518-15.62524-4.29858-6.53279-11.65555-10.95686-19.44122-11.69082-4.28885-.40431-8.81882,.32798-12.3342,2.81788-3.51541,2.4899-5.79126,6.93931-4.97607,11.16934-2.11121-2.14365-3.16211-5.28515-2.76572-8.26763,.39639-2.98249,2.23135-5.74045,4.82916-7.25826-1.57959-5.22359-.22641-11.23224,3.43988-15.27443s18.53873-3.35373,23.89124-2.2899l-.41397-.71014s.00003,0,.00003,0Z"
       fill="#2f2e41"
       id="path42" />
    <path
       d="M364.33511,116.63936c7.08923,.76528,12.20782,6.90612,16.53006,12.57719,2.49124,3.26868,5.1008,6.87836,5.03824,10.98769-.06323,4.15465-2.84103,7.71815-4.16858,11.65549-2.16992,6.4357-.05508,14.0927,5.11032,18.5024-5.104,.96855-10.62155-2.85843-11.50269-7.97826-1.02573-5.96008,3.49231-11.71249,2.95724-17.7365-.47141-5.30721-4.65372-9.39174-8.20932-13.35992-3.55557-3.96819-6.8949-9.23388-5.25916-14.30468l-.49615-.3434s.00003,0,.00003,0Z"
       fill="#2f2e41"
       id="path44" />
  </g>
</svg>
