<?xml version="1.0" encoding="UTF-8" standalone="no"?>
<!-- Created with Inkscape (http://www.inkscape.org/) -->

<svg
   width="430"
   height="500"
   viewBox="0 0 113.77082 132.29165"
   version="1.1"
   id="svg5"
   xml:space="preserve"
   inkscape:version="1.2.2 (b0a8486541, 2022-12-01)"
   sodipodi:docname="overwhelmed.svg"
   xmlns:inkscape="http://www.inkscape.org/namespaces/inkscape"
   xmlns:sodipodi="http://sodipodi.sourceforge.net/DTD/sodipodi-0.dtd"
   xmlns:xlink="http://www.w3.org/1999/xlink"
   xmlns="http://www.w3.org/2000/svg"
   xmlns:svg="http://www.w3.org/2000/svg"><sodipodi:namedview
     id="namedview7"
     pagecolor="#ffffff"
     bordercolor="#000000"
     borderopacity="0.25"
     inkscape:showpageshadow="2"
     inkscape:pageopacity="0.0"
     inkscape:pagecheckerboard="true"
     inkscape:deskcolor="#d1d1d1"
     inkscape:document-units="px"
     showgrid="false"
     inkscape:zoom="1"
     inkscape:cx="215.99999"
     inkscape:cy="258.49999"
     inkscape:window-width="1443"
     inkscape:window-height="1236"
     inkscape:window-x="1093"
     inkscape:window-y="507"
     inkscape:window-maximized="0"
     inkscape:current-layer="layer1" /><defs
     id="defs2"><linearGradient
       inkscape:collect="always"
       id="linearGradient940"><stop
         style="stop-color:#25456a;stop-opacity:0.32551533;"
         offset="0.00569322"
         id="stop936" /><stop
         style="stop-color:#25456a;stop-opacity:1;"
         offset="1"
         id="stop938" /></linearGradient><radialGradient
       inkscape:collect="always"
       xlink:href="#linearGradient940"
       id="radialGradient944"
       cx="56.88541"
       cy="66.145828"
       fx="56.88541"
       fy="66.145828"
       r="50.119392"
       gradientTransform="matrix(1,0,0,1.1627889,0,-10.767808)"
       gradientUnits="userSpaceOnUse" /></defs><g
     inkscape:label="Layer 1"
     inkscape:groupmode="layer"
     id="layer1"><g
       id="g5852"
       transform="translate(0,-0.07537951)"><path
         style="fill:#000000;fill-opacity:0.0507638;stroke:none;stroke-width:0.267542;stroke-linecap:round;stroke-linejoin:round;stroke-dasharray:none;stroke-opacity:1;paint-order:fill markers stroke"
         d="M 66.154549,132.44241 30.056014,105.8096 c 0.52223,-1.95226 0.924662,-5.59947 0.655437,-10.117657 C 30.901178,90.526098 27.788398,84.939727 25.327892,81.331606 14.885636,70.877809 13.871731,61.561469 13.421281,51.934131 c 0,-14.783497 17.105844,-33.750426 40.926975,-35.31908 13.428957,-1.945704 26.279622,-0.512353 37.461303,10.673039 3.427883,3.587063 7.190215,10.825436 9.462521,18.52107 0.7642,3.345838 0.006,5.199286 -0.18113,7.612955 -1.06567,0.328662 13.74021,17.322143 12.49463,19.483204 -1.24558,2.161052 -6.41073,3.123636 -6.41073,3.123636 -0.78144,2.714322 -0.73776,5.757455 0.62254,7.029139 0.8133,0.814671 -1.33207,3.226781 -2.32768,3.850517 2.11848,0.212661 3.34568,2.822596 3.34568,3.517399 0,0.761032 -2.52336,2.092302 -2.84171,3.750555 1.9212,2.842117 1.45564,5.274305 1.21881,7.745785 -1.57069,3.16025 -3.95518,5.01984 -7.204389,5.85918 -6.074961,0.53518 -14.10656,-0.68475 -18.196609,1.63089 -8.525063,6.44319 -11.074415,15.11139 -15.636943,23.02999 z"
         id="path4870"
         sodipodi:nodetypes="ccccccccczccccccccc" /><path
         style="fill:#000000;fill-opacity:0.339849;stroke:none;stroke-width:0.267542;stroke-linecap:round;stroke-linejoin:round;stroke-dasharray:none;stroke-opacity:1;paint-order:fill markers stroke"
         d="M 52.733268,124.76812 16.634733,98.135312 C 17.156963,96.183053 17.559395,92.535853 17.29017,88.017667 17.479897,82.851822 14.367117,77.265451 11.906611,73.65733 1.4643553,63.203533 0.45045042,53.887193 3.7299265e-7,44.259855 3.7299265e-7,29.476358 17.105844,10.509429 40.926975,8.9407747 54.355932,6.9950705 67.206597,8.4284211 78.388278,19.613814 c 3.427883,3.587063 7.190215,10.825436 9.462519,18.52107 0.764204,3.345838 0.0062,5.199286 -0.181129,7.612955 -1.065666,0.328662 13.740212,17.322143 12.494632,19.483204 -1.245582,2.161052 -6.410726,3.123636 -6.410726,3.123636 -0.781447,2.714322 -0.737764,5.757455 0.622539,7.029139 0.813296,0.814671 -1.332073,3.226781 -2.327679,3.850517 2.118472,0.212661 3.34568,2.822596 3.34568,3.517399 0,0.761032 -2.523361,2.092302 -2.841715,3.750555 1.921203,2.842117 1.455642,5.274305 1.218813,7.74578 -1.570689,3.160242 -3.955187,5.019831 -7.204392,5.859171 -6.074961,0.53518 -14.10656,-0.684742 -18.196609,1.63089 -8.525063,6.44319 -11.074415,15.11139 -15.636943,23.02999 z"
         id="path30115"
         sodipodi:nodetypes="ccccccccczccccccccc" /><path
         style="fill:#000000;fill-opacity:0.147045;stroke:none;stroke-width:0.267542;stroke-linecap:round;stroke-linejoin:round;stroke-dasharray:none;stroke-opacity:1;paint-order:fill markers stroke"
         d="M 66.265321,116.55654 30.166785,89.923729 c 0.52223,-1.95226 0.924662,-5.599464 0.655438,-10.117647 C 31.01195,74.640241 27.89917,69.05387 25.438663,65.445749 14.996407,54.991952 13.982503,45.675612 13.532053,36.048274 13.532053,21.264777 30.637896,2.2978474 54.459028,0.72919258 67.887985,-1.2165106 80.738649,0.21683995 91.920331,11.402233 c 3.42788,3.587063 7.190212,10.825436 9.462519,18.52107 0.7642,3.345838 0.006,5.199286 -0.18113,7.612955 -1.06567,0.328662 13.7402,17.322143 12.49463,19.483204 -1.24558,2.161052 -6.41073,3.123636 -6.41073,3.123636 -0.78144,2.714321 -0.73777,5.757455 0.62254,7.029139 0.81329,0.814671 -1.33207,3.226781 -2.32768,3.850518 2.11847,0.21266 3.34569,2.822595 3.34569,3.517398 0,0.761032 -2.52337,2.092302 -2.84172,3.750552 1.9212,2.842119 1.45564,5.274308 1.21881,7.745784 -1.57069,3.160239 -3.95519,5.019828 -7.20439,5.859167 -6.074961,0.535183 -14.106558,-0.684741 -18.196607,1.630896 -8.525062,6.443188 -11.074414,15.111388 -15.636942,23.029988 z"
         id="path1466"
         sodipodi:nodetypes="ccccccccczccccccccc" /></g><path
       style="fill:url(#radialGradient944);fill-opacity:1;stroke:none;stroke-width:0.267542;stroke-linecap:round;stroke-linejoin:round;stroke-dasharray:none;stroke-opacity:1;paint-order:fill markers stroke"
       d="M 59.499296,124.4241 23.400753,97.791289 C 23.922983,95.83903 24.325415,92.191821 24.05619,87.673634 24.245917,82.507794 21.133137,76.921423 18.67263,73.313303 8.2303752,62.859506 7.2164704,53.543164 6.7660204,43.915824 6.7660204,29.132336 23.871864,10.165398 47.692996,8.5967487 61.121956,6.6510444 73.972622,8.084395 85.1543,19.269786 c 3.427885,3.587061 7.190217,10.825433 9.46252,18.521071 0.764202,3.345842 0.0062,5.199283 -0.181128,7.612958 -1.065668,0.328663 13.740208,17.32214 12.494638,19.483201 -1.24559,2.161052 -6.41073,3.123634 -6.41073,3.123634 -0.781452,2.714322 -0.737773,5.757455 0.62254,7.02914 0.81329,0.814671 -1.332083,3.22678 -2.327685,3.850517 2.118475,0.212662 3.345685,2.822595 3.345685,3.517398 0,0.761032 -2.523366,2.092304 -2.841711,3.750553 1.921201,2.842116 1.455641,5.274304 1.218821,7.745779 -1.570706,3.160242 -3.955204,5.019831 -7.204406,5.859179 -6.074958,0.535174 -14.106562,-0.68474 -18.196612,1.630874 -8.525057,6.4432 -11.07441,15.11141 -15.636936,23.03001 z"
       id="path454"
       sodipodi:nodetypes="ccccccccczccccccccc" /><path
       style="fill:#f9a826;fill-opacity:1;stroke:none;stroke-width:0.225286;stroke-linecap:round;stroke-linejoin:round;stroke-opacity:1;paint-order:fill markers stroke"
       id="path1376"
       d="m 40.444174,24.110835 c -1.091646,0.167115 -2.111533,0.634757 -3.105351,1.09451 -1.069394,0.549936 -2.110425,1.193436 -2.908951,2.108437 -0.141804,0.162486 -0.279863,0.331206 -0.387658,0.517997 -0.101006,0.175029 -0.156006,0.372843 -0.234009,0.559265 0.06158,0.30344 -0.01474,0.673523 0.184748,0.910314 0.569351,0.675801 1.250402,0.464861 1.925228,0.262637 0.5089,-0.152501 1.434521,-0.601324 1.868058,-0.855658 0.367707,-0.215712 0.712534,-0.468251 1.0688,-0.702372 0.931575,-0.68701 1.796137,-1.461199 2.593161,-2.299925 0.157454,-0.165688 0.315295,-0.332066 0.455364,-0.512688 0.09327,-0.12028 0.288407,-0.241952 0.242321,-0.387013 -0.151633,-0.477283 -0.516202,-0.858322 -0.774304,-1.287482 -0.308024,0.100705 -0.63429,0.157043 -0.924075,0.302108 -0.315323,0.15785 -1.963491,1.357617 -2.14169,1.489098 -1.427848,1.053475 -2.823179,2.14614 -4.204776,3.259092 -1.605801,1.302707 -3.166456,2.685425 -4.423503,4.338317 -0.653498,0.859281 -0.761169,1.114042 -1.274576,2.01762 -0.119324,0.293251 -0.365763,0.563253 -0.357974,0.879755 0.0354,1.43849 0.70893,1.738173 2.1219,1.854289 0.669809,0.05504 1.348149,-0.08659 2.001242,-0.245164 2.09706,-0.509173 3.750145,-1.35554 5.721363,-2.227398 3.634117,-1.732704 7.026805,-3.909344 10.197109,-6.383231 0.560832,-0.437634 1.115031,-0.884428 1.652554,-1.350397 0.385128,-0.333857 0.742511,-0.698437 1.113766,-1.047659 0.08059,-0.348968 0.549886,-0.864314 0.241771,-1.046903 -1.865548,-1.105523 -3.713985,0.106523 -5.322413,0.817098 -2.282187,1.008238 -4.745192,2.219938 -6.953936,3.36963 -1.10675,0.576089 -2.196654,1.183978 -3.294979,1.775964 -2.378095,1.343207 -4.764894,2.69689 -6.974528,4.310333 -0.907864,0.662909 -1.776331,1.373447 -2.555034,2.186114 -0.292292,0.305043 -0.546991,0.644008 -0.820487,0.966008 -0.192222,0.30206 -0.424564,0.582058 -0.57667,0.90618 -0.401609,0.855781 -0.648961,2.197174 0.246868,2.898383 1.157502,0.906035 2.341185,0.490197 3.670192,0.387476 2.46995,-0.571334 3.307167,-0.687939 5.773148,-1.604337 1.127857,-0.419133 2.231601,-0.902297 3.327621,-1.398748 1.055763,-0.478218 2.109196,-0.966425 3.125217,-1.524124 2.701069,-1.48263 3.606428,-2.247989 6.088683,-4.035052 2.180873,-1.710186 4.283441,-3.532427 6.160535,-5.576136 0.440908,-0.480047 1.50642,-1.703158 1.847551,-2.383252 0.142468,-0.284037 0.181082,-0.609181 0.271628,-0.913773 -0.284589,-0.397285 -0.407608,-0.992418 -0.853758,-1.191854 -0.798226,-0.356814 -3.544839,0.469902 -4.042943,0.602154 -2.686874,0.713384 -4.389926,1.264667 -7.145082,2.288604 -1.64997,0.6132 -3.273221,1.296023 -4.909833,1.944032 -4.110886,1.711077 -8.157643,3.619537 -11.974785,5.922141 -1.449818,0.874569 -2.961907,1.887676 -4.228558,3.032988 -0.429241,0.388123 -0.796849,0.839394 -1.195272,1.259089 -0.709308,1.032309 -1.346336,2.017016 -1.241308,3.331944 0.02539,0.317859 0.04192,0.674316 0.236539,0.926914 0.896453,1.163532 1.608269,1.049049 2.950908,1.336101 0.850262,-0.0306 1.704217,-0.007 2.550785,-0.09178 4.940078,-0.495201 9.724449,-2.192946 14.17208,-4.338977 1.142334,-0.551188 2.241947,-1.186847 3.362921,-1.780271 0.971495,-0.618668 1.970029,-1.196798 2.914485,-1.856007 0.839271,-0.585791 1.643224,-1.222204 2.431305,-1.875237 1.608781,-1.333091 3.115791,-2.831316 4.395968,-4.486025 0.249566,-0.322586 0.468492,-0.667751 0.702741,-1.001626 0.134958,-0.276691 0.304173,-0.539157 0.404884,-0.830067 0.19984,-0.577247 0.289986,-1.452412 -0.55518,-1.754331 -1.042604,-0.372452 -3.215448,0.765849 -3.919095,1.084933 -1.116932,0.506503 -2.216263,1.05096 -3.324392,1.576438 -4.894768,2.459232 -9.764727,4.989271 -14.423698,7.878212 -1.554605,0.963982 -3.080443,1.975029 -4.584309,3.016397 -3.233839,2.23931 -3.860555,2.839324 -6.736721,5.194988 -1.084076,1.030443 -2.702399,2.414606 -3.560194,3.733323 -0.595619,0.91567 -1.159475,2.176633 -0.292241,3.226402 1.263955,1.529997 3.383182,1.356463 5.07446,1.562468 1.355727,-0.0617 2.719332,-0.02665 4.06718,-0.185101 3.186847,-0.374626 7.498174,-1.359292 10.48382,-2.411085 1.976684,-0.696352 3.905403,-1.532545 5.794355,-2.44032 4.386172,-2.10786 6.148334,-3.41622 10.14821,-6.002883 1.305048,-1.011941 2.66869,-1.952534 3.915143,-3.035827 2.04878,-1.780592 4.008797,-3.950204 5.705978,-6.075492 0.915163,-1.146014 2.305919,-3.083996 3.039902,-4.448216 0.266634,-0.495583 0.446947,-1.032964 0.67042,-1.549446 -0.115443,-0.493046 0.127618,-1.300828 -0.346328,-1.47914 -2.654798,-0.998803 -6.736571,1.034624 -8.780836,1.88147 -3.751985,1.554281 -9.245535,4.215866 -12.833793,6.077308 -1.989719,1.032181 -3.938734,2.141012 -5.908102,3.211517 -4.00985,2.447533 -5.396398,3.098815 -8.917229,5.926973 -0.979961,0.787165 -1.956187,1.593492 -2.803301,2.522121 -0.562113,0.616207 -2.351831,3.053249 -2.205088,4.250462 0.09527,0.777292 0.74011,1.380318 1.110167,2.070475 1.005275,0.388447 1.960459,0.947012 3.015828,1.165334 2.726623,0.56405 7.065217,0.345686 9.68789,0.0855 3.789742,-0.375951 7.931515,-1.129539 11.585747,-2.217742 1.753229,-0.522092 3.440051,-1.245641 5.160077,-1.868458 3.673938,-1.978631 5.051927,-2.360449 7.996651,-5.31841 1.086817,-1.091706 2.022274,-2.331319 2.908473,-3.591336 1.494769,-2.125285 2.798681,-4.725021 3.850023,-7.104876 0.41826,-0.946782 0.765328,-1.923441 1.147993,-2.885163 0.208257,-0.741552 1.224056,-3.095162 0.323172,-4.034086 -1.878132,-1.957442 -4.944867,-0.412372 -6.807718,0.165127 -4.119651,1.277118 -8.388095,3.169895 -12.339146,4.805127 -6.145347,2.766274 -8.898022,3.878476 -14.875892,7.089085 -2.260742,1.214204 -4.480401,2.505824 -6.67198,3.840823 -2.576447,1.569443 -7.034968,4.522418 -9.533261,6.521224 -0.983217,0.786642 -1.867138,1.68994 -2.800707,2.53491 -0.537482,0.717945 -1.209466,1.352625 -1.612447,2.153835 -0.665757,1.323669 -0.772176,2.900512 0.666994,3.893413 0.916796,0.632509 2.068177,0.902617 3.172208,1.049922 3.36297,0.448705 7.434641,-0.271893 10.704126,-0.657418 2.018571,-0.451212 4.073162,-0.763967 6.055713,-1.353636 3.882154,-1.15467 7.725404,-2.850374 11.137347,-5.045849 2.7792,-1.788322 5.690419,-4.355976 7.955348,-6.782499 0.980302,-1.050241 1.834115,-2.211786 2.751168,-3.317677 1.402879,-2.016237 2.311055,-3.162493 3.413196,-5.271859 0.284107,-0.543747 0.617957,-1.086394 0.729793,-1.689608 0.294777,-1.589908 -0.694954,-1.999028 -2.354236,-1.809365 -0.978163,0.111805 -1.838032,0.706304 -2.757048,1.059457 -6.905668,3.227983 -13.423918,7.23308 -19.66159,11.601902 -1.58164,1.10777 -3.150978,2.235243 -4.674202,3.422056 -1.304752,1.01659 -2.536857,2.123133 -3.805287,3.184698 -2.345822,2.260144 -4.72263,4.631368 -6.181384,7.595412 -0.379523,0.771153 -0.936669,2.246504 -0.724215,3.197165 0.11021,0.493164 0.474403,0.892393 0.711606,1.33859 0.651491,0.24561 1.26363,0.650245 1.954476,0.736838 1.809009,0.226735 5.52748,-0.495084 7.043942,-0.85147 3.993434,-0.938515 7.142416,-2.033637 10.994241,-3.520246 1.842607,-0.711155 3.64933,-1.511999 5.473996,-2.268 1.645512,-0.819909 3.33915,-1.549608 4.936539,-2.459722 4.563464,-2.60004 8.974316,-6.21919 12.08183,-10.490858 0.438517,-0.602795 0.794815,-1.261312 1.192228,-1.891968 0.265897,-0.717714 1.243209,-2.313365 -0.0384,-3.011313 -1.988772,-1.083061 -5.990145,0.46312 -7.421692,0.923231 -6.154068,1.977982 -8.017342,3.00961 -14.120101,5.708697 -2.384459,1.24759 -4.824554,2.394179 -7.153379,3.742771 -3.778341,2.187992 -7.551413,4.760758 -10.788902,7.719745 -1.059274,0.968152 -4.366821,4.376413 -4.905474,6.16926 -0.251645,0.837565 0.09278,1.746644 0.139162,2.619961 1.268352,0.575135 2.437651,1.461387 3.805055,1.725389 3.196953,0.61723 9.080969,-0.280198 12.006401,-0.954569 4.317012,-0.995152 9.154688,-2.794733 13.147035,-4.717238 1.899891,-0.914886 3.693122,-2.036476 5.539685,-3.054721 4.153078,-2.730338 7.953201,-5.943813 11.319327,-9.597798 0.870362,-0.944797 2.588958,-2.920035 3.212461,-4.220247 0.214886,-0.448109 0.246553,-0.962875 0.369829,-1.44431 -0.395748,-0.461711 -0.602949,-1.21661 -1.187239,-1.385124 -1.508375,-0.43503 -6.060141,1.092549 -6.958812,1.395725 -3.513431,1.185292 -10.076399,3.786047 -13.349036,5.200586 -2.375494,1.026761 -4.70651,2.153515 -7.059764,3.230274 -3.585886,1.883678 -8.037282,3.982304 -11.288408,6.534353 -1.119552,0.878822 -2.161775,1.88994 -2.992843,3.045385 -0.9608,1.335816 -1.999123,3.824118 -0.189632,5.244575 1.064291,0.835472 2.573011,0.838172 3.859516,1.257262 1.705405,-0.05511 3.431168,0.103026 5.116213,-0.165426 5.027245,-0.800914 8.949331,-2.48291 13.483106,-4.783278 4.090789,-2.075612 7.976979,-4.518697 11.493803,-7.473122 1.431535,-1.202612 2.684046,-2.603493 4.02607,-3.905237 0.961308,-1.230778 2.009993,-2.398045 2.883923,-3.69233 1.262803,-1.870208 2.308836,-4.009351 2.901662,-6.19832 0.238936,-0.882246 0.799902,-3.301415 -0.269522,-4.149542 -0.778735,-0.61759 -1.897949,-0.590892 -2.846924,-0.886335 -1.845876,0.544717 -3.740424,0.945661 -5.537635,1.63415 -4.670149,1.78908 -9.776387,4.552692 -13.994855,7.173372 -4.296237,2.668991 -7.99683,5.390051 -11.794888,8.698349 -1.410896,1.22896 -2.708116,2.582636 -4.062174,3.873954 -1.993556,2.299656 -3.327247,3.566115 -4.785493,6.14614 -0.421521,0.745782 -0.779911,1.535645 -1.026719,2.355982 -0.472527,1.570583 -0.613663,3.000444 1.482342,3.717932 1.217924,0.416917 2.57266,0.100178 3.858991,0.15026 1.6801,-0.330102 3.385477,-0.550706 5.040302,-0.990316 1.987563,-0.528005 3.94373,-1.179875 5.867266,-1.907331 2.073703,-0.784242 4.111777,-1.666912 6.112041,-2.62307 3.561289,-1.702339 7.470403,-3.985248 10.840233,-6.076702 1.349249,-0.837394 2.662883,-1.730861 3.994323,-2.596293 1.473307,-1.061323 3.456471,-2.407944 4.858207,-3.670738 0.359394,-0.323772 1.019499,-0.583935 0.984252,-1.066371 -0.04828,-0.660815 -0.520288,-1.529397 -1.179061,-1.60027 -1.47885,-0.159098 -9.22005,3.123188 -9.571043,3.260906 -6.069591,2.973964 -7.666754,3.604722 -13.479611,7.058922 -1.906582,1.13296 -3.788145,2.312064 -5.612699,3.572879 -1.51796,1.048949 -5.365287,3.593207 -6.165993,5.857524 -0.27327,0.772777 0.144164,1.632997 0.216244,2.4495 0.679826,0.554035 1.228507,1.328274 2.039479,1.662098 2.472769,1.017891 6.034801,0.439033 8.410085,0.04487 3.703633,-0.614612 7.89046,-1.776947 11.410034,-3.054212 1.839905,-0.667702 3.616477,-1.498459 5.424715,-2.247697 4.169653,-2.168359 5.142622,-2.482406 8.869909,-5.123252 1.106714,-0.784131 2.164157,-1.638063 3.196845,-2.517403 0.693453,-0.590479 3.365624,-3.057682 3.988941,-4.061677 0.282637,-0.455253 0.318995,-1.02313 0.478493,-1.534694 -0.347946,-0.491049 -0.486497,-1.246062 -1.043837,-1.473142 -1.566604,-0.638298 -5.285138,0.493722 -6.45429,0.870444 -3.5812,1.153929 -7.448809,2.874094 -10.797737,4.527632 -1.850007,0.913441 -3.646119,1.932213 -5.469182,2.898323 -3.96507,2.39867 -8.031876,4.757929 -11.430212,7.95373 -0.783703,0.736994 -2.483361,2.529996 -2.887835,3.732209 -0.17239,0.512393 -0.06141,1.079489 -0.09211,1.619233 0.670243,0.446441 1.23896,1.109295 2.010726,1.339308 1.520586,0.453182 5.022835,-0.17982 6.320588,-0.468296 2.586941,-0.575045 6.387825,-1.788991 8.782826,-2.826348 1.487876,-0.644454 2.895539,-1.460215 4.343307,-2.190319 1.234409,-0.827167 2.522474,-1.579408 3.703237,-2.481501 1.816692,-1.387952 3.513762,-3.047313 4.873692,-4.893935 0.459203,-0.623556 0.90148,-1.275359 1.19657,-1.991319 0.204635,-0.496501 0.699641,-1.254023 0.278201,-1.586856 -0.822326,-0.649436 -2.053688,-0.417539 -3.080534,-0.626313 -1.180103,0.487208 -2.394292,0.89889 -3.540307,1.461616 -2.871531,1.409993 -5.312988,3.007957 -7.856768,4.944908 -1.802192,1.372273 -4.301426,3.507549 -5.815834,5.28698 -0.565208,0.664114 -0.988658,1.436868 -1.482985,2.155299 -0.0893,0.633559 -0.396637,1.273942 -0.267902,1.900678 0.366009,1.781886 1.899861,2.164726 3.533322,2.086618 1.253657,-0.05992 2.475341,-0.452018 3.673878,-0.824505 3.422371,-1.063625 4.853565,-2.004572 8.035215,-3.673813 3.543271,-2.177459 6.787236,-4.80313 9.554327,-7.913504 0.369556,-0.415404 2.893418,-3.257156 2.703318,-4.366829 -0.133594,-0.779844 -1.003277,-1.223719 -1.504914,-1.835579 -0.90001,-0.08966 -1.797432,-0.327158 -2.700023,-0.269008 -2.520976,0.162415 -6.019919,1.359747 -8.251586,2.191579 -2.996455,1.116904 -6.398153,2.687153 -9.276283,4.102736 -1.242597,0.611156 -2.461297,1.269731 -3.691947,1.904604 -0.728073,0.405873 -3.707398,1.968061 -4.59908,2.754988 -0.262928,0.232038 -0.882747,0.720343 -0.572033,0.882915 2.749157,1.43844 4.299907,-0.04857 6.653025,-1.339665 1.27476,-0.699445 2.511043,-1.46683 3.766569,-2.200242 1.194161,-0.839915 2.446533,-1.602621 3.582486,-2.519731 1.986251,-1.6036 3.857269,-3.541953 5.340479,-5.628675 0.852541,-1.199442 1.997536,-3.153274 2.206572,-4.714734 0.08025,-0.599369 -0.116213,-1.203841 -0.174316,-1.805761 -0.518385,-0.428975 -0.917759,-1.071343 -1.555145,-1.286928 -1.483373,-0.501726 -3.756694,0.241819 -5.027355,0.81202 -1.99742,0.896328 -3.810264,2.218951 -5.409001,3.698329 -0.752485,0.696309 -1.399259,1.498796 -2.098893,2.248193 -0.504694,0.70388 -1.074102,1.365583 -1.514075,2.111624 -0.259589,0.440175 -1.475093,2.706747 -0.79945,3.48688 0.544169,0.628317 1.436801,1.000581 2.26715,1.038366 1.842752,0.08385 6.072984,-1.915147 7.432397,-2.475672 1.639693,-0.839736 3.303459,-1.634028 4.919073,-2.519205 3.042651,-1.66703 7.468635,-4.354652 10.397731,-6.259614 2.400603,-1.561251 5.488575,-3.68961 7.759758,-5.5281 0.860291,-0.696394 1.655716,-1.46931 2.483573,-2.203965 0.45492,-0.510437 2.285672,-2.286025 2.405808,-3.281886 0.212156,-1.758755 -1.014761,-2.43235 -2.610379,-2.658796 -2.424683,-0.34411 -6.39611,0.64098 -8.559816,1.043089 -4.692508,1.531702 -7.770063,2.39503 -12.286132,4.440272 -3.60402,1.632192 -6.789263,3.468584 -10.016531,5.728103 -1.164091,0.815016 -2.291016,1.686942 -3.364739,2.617788 -0.795931,0.690021 -1.489061,1.490384 -2.233588,2.235576 -0.322206,0.607411 -0.825617,1.149271 -0.966615,1.82224 -0.338371,1.615012 0.66373,2.347459 2.226701,2.497697 0.904665,0.08697 1.822019,-0.168311 2.692394,-0.429896 3.433965,-1.032054 4.986889,-2.283082 8.167598,-4.1921 4.380469,-3.022554 8.47357,-6.436329 12.310956,-10.11957 1.165568,-1.11875 3.535946,-3.50785 4.627149,-4.909749 0.381754,-0.490443 0.66638,-1.049295 0.99957,-1.573942 -0.204324,-0.541417 -0.128378,-1.307947 -0.612967,-1.624257 -1.023367,-0.667984 -3.534607,-0.05465 -4.512459,0.195311 -1.765789,0.451375 -4.630462,1.433743 -6.254173,2.093022 -1.230378,0.499576 -2.425931,1.080961 -3.638895,1.621443 -2.867313,1.50456 -3.66484,1.8338 -6.301829,3.541968 -0.780098,0.505323 -1.550389,1.028864 -2.283676,1.599998 -0.573416,0.446619 -2.243963,1.846175 -2.560761,2.714619 -0.163219,0.447435 -0.02652,0.952183 -0.03976,1.428276 0.622554,0.330857 1.169863,0.891956 1.867654,0.992579 1.490831,0.21498 4.491697,-1.012444 5.623224,-1.528142 2.451699,-1.117376 4.476038,-2.328284 6.424797,-4.232403 0.995679,-0.972867 1.78438,-2.137137 2.67657,-3.205704 0.629247,-1.291992 1.383087,-2.530416 1.887732,-3.875968 0.883122,-2.35467 1.373435,-5.278895 1.572496,-7.785819 0.117768,-1.483116 0.128687,-4.352251 -0.159895,-5.912404 -0.129065,-0.697765 -0.427476,-1.353289 -0.641213,-2.029932 -0.635394,-0.428511 -1.161473,-1.104552 -1.906179,-1.285541 -2.406973,-0.584974 -5.029308,0.818721 -6.998512,1.807825 -2.401681,1.20632 -5.48239,3.219891 -7.623941,4.876108 -0.959218,0.741833 -1.835876,1.58468 -2.753816,2.377021 -0.500172,0.728959 -1.227432,1.346065 -1.500512,2.186885 -0.219701,0.676473 -0.284421,1.531817 0.09799,2.131521 1.202118,1.885144 3.807228,1.782865 5.613891,1.604417 1.320805,-0.130458 2.620296,-0.456938 3.894806,-0.82732 1.315563,-0.382312 2.570055,-0.949908 3.85508,-1.424859 2.255738,-1.232443 4.208977,-1.942005 5.799167,-4.042004 0.472614,-0.624134 0.920187,-1.378999 0.917836,-2.161876 -0.0021,-0.758468 -0.342926,-1.596899 -0.930583,-2.076415 -2.026083,-1.65325 -4.816894,-0.711384 -6.984046,-0.456606 -1.785702,0.594623 -3.608127,1.088607 -5.357104,1.783873 -1.922113,0.764099 -3.794616,1.653317 -5.639928,2.587767 -4.544088,2.301091 -8.984853,5.039594 -12.702697,8.554902 -0.762617,0.72107 -1.413949,1.551409 -2.120925,2.327109 -0.408051,0.629983 -0.940466,1.195038 -1.224154,1.88995 -0.514013,1.259115 -0.319424,2.461547 1.26619,2.925601 0.790024,0.231212 1.660313,0.0077 2.463435,-0.172816 2.284227,-0.513472 3.93668,-1.640442 5.970447,-2.761431 3.610777,-2.365328 6.850546,-5.239926 9.765584,-8.416343 1.572583,-1.713594 3.112945,-3.423325 4.002687,-5.610938 0.285559,-0.702102 0.319544,-1.481846 0.479315,-2.222769 C 61.979217,27.334173 61.980506,26.63858 61.631508,26.101849 60.80314,24.82789 59.332371,24.3866 57.939936,24.179165 c -1.577425,-0.234995 -3.590787,-0.04763 -5.132421,0.244925 -0.888418,0.168583 -1.751355,0.451183 -2.627032,0.676773 -0.791185,0.378428 -1.633414,0.664779 -2.373556,1.13528 -1.071203,0.680961 -2.678174,2.068522 -2.847494,3.498276 -0.09864,0.832915 0.0866,1.738788 0.506884,2.464626 1.360336,2.349358 3.334301,2.469308 5.704694,3.295318 1.407829,0.181321 2.804921,0.49376 4.223491,0.543959 3.511847,0.124277 6.238348,-0.314151 9.585729,-1.422688 2.920563,-0.967192 5.47347,-2.269343 7.855566,-4.214223 0.951022,-0.776471 1.726343,-1.746174 2.589516,-2.619266 1.43276,-2.165665 2.02659,-2.778976 2.922594,-5.117094 0.25078,-0.654409 0.511693,-1.325782 0.567703,-2.024355 0.04722,-0.589058 0.08129,-1.27399 -0.264859,-1.752935 -1.291139,-1.786432 -2.907809,-1.223051 -4.750804,-1.189997 -1.041023,0.223397 -2.0959,0.389918 -3.123078,0.670185 -2.725007,0.743515 -4.584379,1.524455 -7.154319,2.754774 -2.079697,0.995627 -4.30032,2.231416 -6.256579,3.470194 -0.77553,0.491095 -1.517273,1.033611 -2.275913,1.550416 -0.570176,0.460834 -1.165752,0.891913 -1.710537,1.382506 -0.625087,0.56291 -1.556155,1.523842 -1.929559,2.340665 -0.159065,0.347953 -0.448522,0.77125 -0.277803,1.11364 0.319559,0.640895 0.88887,1.23828 1.566305,1.47054 0.963212,0.33024 2.035106,0.0754 3.052658,0.113085 3.681116,-0.574859 5.179648,-0.658635 8.834429,-1.901819 1.554954,-0.528922 3.103654,-1.112372 4.55083,-1.889112 1.252886,-0.672459 2.479066,-1.447589 3.503405,-2.433828 0.810117,-0.779987 1.880089,-1.655709 1.911675,-2.779845 0.03572,-1.270875 -1.158773,-2.263367 -1.738162,-3.395052 -1.543042,-0.718086 -3.001222,-1.657728 -4.629132,-2.154256 -3.990906,-1.21726 -8.123264,-1.364387 -12.238717,-0.86584 -1.874223,0.227041 -3.718581,0.693753 -5.528168,1.231957 -1.503236,0.447092 -2.982953,1.004839 -4.38114,1.715248 -1.098433,0.558106 -2.042619,1.378352 -3.063927,2.06753 -0.5807,0.749947 -1.365275,1.379419 -1.742103,2.24984 -0.906788,2.094576 -0.17574,3.437396 1.741607,4.642443 1.006422,0.63253 2.212815,0.899588 3.373558,1.155818 1.285064,0.283677 2.605821,0.440446 3.921745,0.454594 1.535575,0.01652 3.061776,-0.242037 4.592665,-0.363052 3.738394,-0.832344 5.168523,-0.947885 8.637835,-2.48664 1.134835,-0.503336 2.252308,-1.07235 3.26831,-1.785743 1.132649,-0.795297 2.817529,-2.464412 3.220971,-3.942654 0.171968,-0.630111 -0.02125,-1.306142 -0.03185,-1.959214 -0.570785,-0.548147 -0.950065,-1.431892 -1.712354,-1.644449 -2.650867,-0.739163 -7.876406,0.423864 -10.177616,0.997283 -3.291475,0.820173 -9.221041,2.811959 -12.377258,4.126309 -1.869707,0.778608 -3.664751,1.725621 -5.497126,2.58843 -3.72783,2.099927 -7.478233,4.333949 -10.488918,7.426762 -0.517746,0.531867 -2.116374,2.330816 -2.131079,3.365181 -0.0085,0.596235 0.404156,1.122024 0.606234,1.683034 0.731411,0.304627 1.412056,0.787535 2.19423,0.913885 2.657331,0.429249 5.935006,-0.377133 8.390541,-1.002592 2.421679,-0.616836 7.477509,-2.194461 9.721563,-3.461836 1.30086,-0.734689 2.378345,-1.808724 3.567515,-2.713087 0.732255,-1.06118 1.669186,-2.007124 2.196762,-3.18354 0.485297,-1.082144 0.74205,-2.284684 0.787004,-3.469815 0.121573,-3.205169 -1.643478,-6.672977 -3.933454,-8.829412 -0.702985,-0.661991 -1.572995,-1.120428 -2.359495,-1.680642 -0.921771,-0.275302 -1.805491,-0.761136 -2.765314,-0.825907 -2.388432,-0.161179 -4.725656,0.789686 -6.746519,1.923617 -2.166379,1.215588 -4.850797,3.383382 -6.640297,5.08978 -1.022874,0.97537 -1.942204,2.053854 -2.913307,3.080785 -2.148186,2.850112 -2.748795,3.436178 -4.453623,6.481597 -0.529774,0.94636 -1.000153,1.926005 -1.446126,2.914621 -0.594593,1.318072 -1.286036,3.153581 -1.620881,4.597671 -0.145941,0.6294 -0.203097,1.27614 -0.304646,1.914208 0.092,0.678168 0.03998,1.392107 0.275992,2.034504 0.652903,1.777113 1.836214,2.742551 3.57226,3.489731 1.861282,0.801079 4.884019,1.204004 6.865582,1.273569 1.234267,0.04332 2.468717,-0.08134 3.703075,-0.122004 3.195166,-0.324882 6.315975,-1.084017 9.354274,-2.105815 1.539625,-0.517784 3.02772,-1.162532 4.523395,-1.791318 0.201732,-0.06646 0.399809,-0.145245 0.605193,-0.19937 0.0892,-0.0235 0.183096,-0.04232 0.274822,-0.03252 0.05543,0.0059 -0.107159,0.05854 -0.161155,0.04468 -0.126384,-0.03245 -0.234534,-0.114546 -0.349742,-0.175795 -0.02448,-0.01303 -0.04311,-0.05714 -0.06879,-0.04672 -0.02686,0.0109 -0.0152,0.05594 -0.02278,0.08392 -0.04759,1.203211 1.654012,1.270517 1.701601,0.0673 v 0 c -4.26e-4,-0.149032 0.02175,-0.299934 -0.0017,-0.447103 -0.08271,-0.517499 -0.228778,-0.825204 -0.739986,-1.103679 -0.56014,-0.305133 -1.376585,0.06983 -1.897352,0.239464 -1.444975,0.607501 -2.882066,1.232861 -4.368828,1.734957 -2.893665,0.977222 -5.865846,1.707768 -8.908639,2.030136 -1.156234,0.0433 -2.312168,0.16427 -3.468702,0.129922 -1.785254,-0.05302 -4.431073,-0.396254 -6.153204,-1.033313 -1.198365,-0.443311 -2.253608,-1.087667 -2.776549,-2.297886 -0.203169,-0.470183 -0.183905,-1.007761 -0.275858,-1.511636 0.08485,-0.563781 0.127952,-1.135452 0.254574,-1.691344 0.310266,-1.362111 0.957984,-3.085515 1.514481,-4.326388 0.422187,-0.941384 0.867019,-1.874585 1.369213,-2.775836 1.622101,-2.911047 2.201327,-3.48342 4.242778,-6.206826 0.928489,-0.986223 1.807427,-2.021562 2.785463,-2.958672 1.693266,-1.622404 4.185199,-3.641505 6.227884,-4.827436 1.512723,-0.878251 3.73299,-1.884223 5.587647,-1.837307 0.775283,0.01962 1.501478,0.389045 2.252217,0.583569 0.675691,0.458761 1.422605,0.82707 2.027073,1.376283 2.682034,2.436871 4.52371,6.696473 3.040079,10.255127 -0.427146,1.02456 -1.216006,1.857432 -1.824012,2.786145 -1.060287,0.829688 -2.01035,1.823864 -3.180867,2.48906 -1.40662,0.799361 -2.957617,1.320272 -4.481008,1.865099 -1.61891,0.578994 -3.270276,1.069999 -4.934387,1.502245 -3.144051,0.81666 -5.59276,1.37128 -8.767381,0.897136 -0.16427,-0.06628 -0.479424,-0.02223 -0.49281,-0.198847 -0.06446,-0.850481 1.37846,-2.405708 1.691084,-2.729072 2.883186,-2.982223 6.495337,-5.121677 10.071278,-7.147973 1.785897,-0.843366 3.534872,-1.769815 5.357689,-2.530099 3.092293,-1.289774 8.880353,-3.235788 12.113037,-4.052832 1.946381,-0.491938 6.43357,-1.406189 8.828698,-1.310416 0.3763,0.01502 0.694894,0.290578 1.042337,0.435865 0.07678,0.332844 0.302891,0.66474 0.230345,0.99853 -0.264723,1.218041 -1.658633,2.630455 -2.543781,3.260791 -0.939967,0.669372 -1.975294,1.205507 -3.028484,1.677082 -3.283427,1.470181 -4.65716,1.588848 -8.197115,2.390314 -1.421222,0.122598 -2.837165,0.370791 -4.263663,0.367797 -2.017258,-0.0042 -4.444383,-0.430436 -6.34915,-1.187459 -0.524175,-0.208321 -1.146458,-0.395135 -1.451716,-0.869451 -0.807346,-1.254479 0.753161,-2.617129 1.277774,-3.347272 0.909155,-0.629735 1.743959,-1.383395 2.727461,-1.889212 1.31754,-0.677616 2.713725,-1.20908 4.131716,-1.638477 3.778941,-1.144345 7.184019,-1.668319 11.163903,-1.417485 1.87224,0.117997 3.734522,0.466825 5.546945,0.950909 1.361057,0.363522 2.613823,1.051878 3.920737,1.577821 0.56935,0.49015 1.661035,0.720647 1.70804,1.470441 0.05739,0.915443 -0.816639,1.682394 -1.470012,2.326155 -0.925891,0.912276 -2.037659,1.636927 -3.180565,2.256029 -1.378142,0.746528 -2.854382,1.308206 -4.337115,1.816233 -3.436867,1.177565 -4.932828,1.285102 -8.376864,1.843651 -0.771694,0.02091 -1.551502,-0.05094 -2.315073,0.06266 -0.247234,0.03679 -0.403049,0.429866 -0.64758,0.378067 -0.166041,-0.03517 -0.03168,-0.351515 0.03397,-0.508044 0.130569,-0.311478 0.326314,-0.595537 0.538735,-0.858106 0.846202,-1.045983 1.554499,-1.509196 2.63248,-2.385311 0.729291,-0.498082 1.442153,-1.021128 2.187881,-1.494249 1.909261,-1.21131 4.04274,-2.398986 6.073345,-3.375569 2.507996,-1.206175 4.17966,-1.908997 6.829277,-2.648667 0.936113,-0.261331 1.897427,-0.422119 2.846138,-0.633177 0.689143,-0.06619 1.376213,-0.159549 2.067426,-0.198556 0.309242,-0.01745 0.688284,-0.165773 0.92874,0.02945 0.705628,0.572931 -0.05577,2.389934 -0.17838,2.716931 -0.788059,2.101707 -1.336212,2.696588 -2.595288,4.644152 -0.776006,0.800334 -1.469923,1.68939 -2.328028,2.400995 -2.226529,1.846411 -4.566337,3.044164 -7.311113,3.971447 -3.15151,1.064695 -5.65171,1.47866 -8.963836,1.385606 -1.310425,-0.03683 -2.602901,-0.31493 -3.904351,-0.472397 -2.100259,-0.636309 -3.187174,-0.569213 -4.604374,-2.167623 -0.303491,-0.342297 -0.606097,-0.774393 -0.604981,-1.231859 0.0013,-0.516321 0.29899,-1.01213 0.611455,-1.423169 0.967797,-1.2731 2.117661,-1.617352 3.506074,-2.304664 0.803799,-0.211753 1.595847,-0.474581 2.411391,-0.635254 1.448271,-0.28532 3.024448,-0.427946 4.503128,-0.283025 0.551125,0.054 1.999057,0.307334 2.499532,0.832403 0.244534,0.256554 0.305564,0.639602 0.458349,0.959406 -0.09811,0.573045 -0.08172,1.17803 -0.294338,1.719135 -0.811624,2.065516 -2.251673,3.633087 -3.729557,5.247236 -2.801434,3.059736 -5.913392,5.833097 -9.378736,8.122503 -0.981776,0.548407 -1.930472,1.160765 -2.945327,1.645232 -3.081692,1.471115 -1.471322,0.499635 -3.88439,1.263364 -0.196246,0.06212 -0.385467,0.418499 -0.545624,0.28919 -0.684004,-0.552257 1.215124,-2.777312 0.986812,-2.445778 0.653404,-0.723927 1.25313,-1.500179 1.960208,-2.171774 3.599156,-3.418531 7.909149,-6.069199 12.313501,-8.307176 1.790111,-0.909607 3.60838,-1.77094 5.471066,-2.520793 1.645215,-0.662306 3.358873,-1.139939 5.038313,-1.709906 1.18467,-0.177972 2.357999,-0.465518 3.554007,-0.533908 0.596456,-0.0341 1.20586,0.0557 1.777593,0.229025 0.300051,0.09096 0.726098,0.232039 0.76822,0.542728 0.07163,0.52839 -0.17428,1.092286 -0.488098,1.523384 -1.405074,1.930131 -3.184695,2.560347 -5.231511,3.691406 -1.207962,0.452348 -2.388491,0.986116 -3.623884,1.357047 -2.39306,0.718528 -3.786664,0.951567 -6.178259,0.856232 -0.481355,-0.0192 -1.990467,-0.02231 -1.65084,-1.153593 0.211038,-0.702967 0.799746,-1.230935 1.199619,-1.846401 0.873657,-0.757707 1.707241,-1.564257 2.620973,-2.273129 2.165018,-1.679623 4.898364,-3.444611 7.320268,-4.705561 1.754808,-0.913631 3.494766,-1.877059 5.519052,-1.867718 0.377906,0.0017 0.7264,0.208798 1.0896,0.313193 0.18766,0.548943 0.454848,1.076861 0.562977,1.646829 0.277321,1.461791 0.272577,4.161482 0.167578,5.547327 -0.176404,2.328267 -0.622669,5.071371 -1.418937,7.26728 -0.443149,1.222102 -1.10955,2.351282 -1.664327,3.526927 -2.222967,2.712285 -2.392913,3.335219 -5.329161,5.289041 -1.537947,1.023377 -4.04722,2.157122 -5.846671,2.724019 -0.601723,0.189564 -1.2561,0.178788 -1.854188,0.379523 -0.224406,0.07532 -0.37575,0.287976 -0.563628,0.431961 -0.08868,-0.06559 -0.303652,-0.09309 -0.266047,-0.196793 0.288846,-0.796518 1.65342,-1.922876 2.158019,-2.317218 0.702636,-0.549115 1.440926,-1.052536 2.188893,-1.538097 2.555722,-1.659124 3.33126,-1.980142 6.112463,-3.442775 3.358288,-1.500806 3.423579,-1.630277 6.798241,-2.766954 4.572617,-1.540183 0.967575,-0.27948 4.703769,-1.244185 0.925862,-0.239063 0.794181,-0.220881 1.37953,-0.733783 -0.278086,0.450804 -0.509231,0.934189 -0.834264,1.352411 -1.067547,1.373608 -3.366109,3.690632 -4.503613,4.783404 -3.753011,3.605411 -7.755765,6.947816 -12.035891,9.913243 -3.381948,2.047626 -4.129217,2.792831 -7.598019,3.97601 -0.651926,0.222368 -1.353323,0.263275 -2.018829,0.440908 -0.248596,0.06638 -0.458957,0.305066 -0.715752,0.28901 -0.167169,-0.01045 -0.38295,-0.190864 -0.354664,-0.355957 0.08638,-0.504152 0.435694,-0.925594 0.65354,-1.388386 0.691041,-0.697808 1.332248,-1.448768 2.073126,-2.093415 1.033246,-0.899031 2.117894,-1.741363 3.238738,-2.528473 3.124058,-2.193866 6.233776,-3.994535 9.72404,-5.577836 4.360108,-1.977889 7.451874,-2.862463 11.971584,-4.349284 4.240508,-0.80203 4.018316,-0.952703 7.748431,-1.088266 0.381821,-0.01388 0.767274,-0.0045 1.144991,0.05299 0.161857,0.02465 0.466455,0.02712 0.452818,0.190274 -0.07268,0.869452 -1.710834,2.437583 -2.026994,2.796053 -0.792326,0.705552 -1.552716,1.44869 -2.376971,2.116664 -2.235571,1.811694 -5.275197,3.907181 -7.63742,5.444018 -2.896493,1.884428 -7.261874,4.535844 -10.272292,6.188427 -1.574697,0.864441 -3.196096,1.640932 -4.794144,2.461403 -12.467766,5.196865 2.483848,-0.863092 -6.489903,2.370814 -0.311657,0.112319 -0.5425,0.5895 -0.860609,0.497035 -0.260584,-0.07575 -0.224329,-0.530638 -0.169158,-0.796346 0.271815,-1.309117 1.308918,-2.477815 2.033648,-3.50083 0.641704,-0.695159 1.234831,-1.438528 1.925108,-2.085482 1.474281,-1.381756 3.045581,-2.53517 4.874778,-3.404697 0.697263,-0.331454 1.439394,-0.568538 2.185684,-0.766241 0.467343,-0.123808 0.954846,-0.164211 1.437418,-0.193583 0.245007,-0.0149 0.489204,0.04095 0.733807,0.06145 0.07856,0.350863 0.274983,0.695194 0.235666,1.052586 -0.15292,1.389919 -1.160766,3.096921 -1.901274,4.149017 -1.377725,1.957457 -3.14938,3.812177 -5.002112,5.313552 -1.096978,0.888943 -2.30747,1.627851 -3.461207,2.441773 -1.228275,0.718467 -2.439231,1.467393 -3.684824,2.15541 -1.08484,0.599222 -2.351589,0.911994 -3.304036,1.704958 -0.561992,0.467888 -0.666576,1.303858 -1.054495,1.923757 -0.04266,0.06816 -0.06065,-0.190345 0.0017,-0.241235 0.507799,-0.415056 1.071617,-0.758612 1.634155,-1.095782 0.91649,-0.549326 1.866286,-1.04108 2.799429,-1.561609 1.212642,-0.625981 2.413553,-1.275218 3.63792,-1.877926 2.835345,-1.395738 6.130072,-2.917278 9.082386,-4.025363 2.571246,-0.965057 4.924508,-1.747601 7.627231,-2.108466 0.604793,-0.08075 1.220194,-0.01713 1.830296,-0.02565 0.294861,-0.06734 0.824055,-0.498347 0.884587,-0.202018 0.206596,1.011415 -2.126426,3.567243 -2.341401,3.809975 -2.641767,2.982867 -5.742459,5.501672 -9.127743,7.595054 -1.282198,0.67655 -2.530253,1.422191 -3.846596,2.029638 -2.258753,1.042341 -4.446356,1.817468 -6.879166,2.283519 -0.07456,0.0143 -1.765933,0.347761 -2.026615,-0.254036 -0.143555,-0.331401 -0.01409,-0.722176 -0.02116,-1.083264 0.428831,-0.638788 0.789378,-1.329155 1.286493,-1.916378 1.456284,-1.720234 3.848972,-3.765107 5.582604,-5.089806 3.275505,-2.502874 6.803351,-4.676053 10.679309,-6.117491 0.377181,-0.42618 0.588712,-1.107566 1.131539,-1.278547 0.299072,-0.0942 0.06314,0.648229 -0.05391,0.939122 -0.253939,0.631217 -0.632108,1.210607 -1.032304,1.760838 -1.258408,1.730202 -2.833154,3.280858 -4.523881,4.580824 -1.122535,0.863092 -2.347901,1.583472 -3.521856,2.375212 -1.386488,0.703517 -2.733666,1.490562 -4.159466,2.110543 -2.330135,1.01321 -5.952369,2.169641 -8.470086,2.744657 -4.425061,1.010637 -1.833785,0.288929 -5.436988,0.56002 -0.313719,0.02359 -0.613175,0.141154 -0.919764,0.211726 -0.04821,-0.238024 -0.217669,-0.482469 -0.144606,-0.71407 0.343348,-1.08838 1.841897,-2.656873 2.518996,-3.296498 3.303505,-3.120682 7.273383,-5.40905 11.130997,-7.751772 1.794096,-0.95179 3.561799,-1.955098 5.382291,-2.855375 3.327077,-1.645308 6.963324,-3.259737 10.50588,-4.424521 9.432941,-3.101532 -0.215811,0.287815 4.96743,-1.194518 0.169572,-0.04849 0.305923,-0.175612 0.458882,-0.263416 -0.03542,0.274055 0.04146,0.588607 -0.106213,0.822165 -0.624015,0.986847 -3.071557,3.256252 -3.763173,3.847309 -0.990825,0.846754 -2.005132,1.66959 -3.067417,2.424759 -3.610716,2.566833 -4.549149,2.868644 -8.597301,4.979979 -1.761127,0.732076 -3.491272,1.543648 -5.283379,2.196229 -3.519299,1.281522 -7.389206,2.34399 -11.084233,2.985753 -2.649858,0.460235 -4.718227,0.803517 -7.275707,0.23378 -0.470841,-0.104894 -0.880306,-0.394757 -1.32046,-0.592131 -0.814433,-1.729017 -1.02407,-1.347215 1.188161,-3.451817 1.220067,-1.160705 2.623657,-2.116645 4.008578,-3.074665 1.797042,-1.243097 3.650335,-2.405685 5.528434,-3.522559 5.717038,-3.399829 7.31268,-4.03522 13.271865,-6.96063 1.833928,-0.721636 3.657067,-1.471307 5.501778,-2.164899 0.992897,-0.37332 2.124549,-0.449846 3.009218,-1.035148 0.345958,-0.228889 0.698671,-0.956567 0.357201,-1.1921 -0.327528,-0.225926 -0.500908,0.622689 -0.7964,0.889155 -1.368498,1.234055 -3.275013,2.528136 -4.715181,3.566797 -1.313163,0.854035 -2.608823,1.735603 -3.939491,2.562107 -3.296673,2.047618 -7.156738,4.305038 -10.639231,5.974034 -3.695887,1.771259 -7.675488,3.350304 -11.640516,4.425016 -1.54568,0.418949 -3.138675,0.63821 -4.708013,0.957315 -0.961309,0.05184 -1.921227,0.159211 -2.883927,0.155584 -0.349111,-0.0015 -0.867457,0.13683 -1.033394,-0.170328 -0.235423,-0.435784 0.0061,-1.002902 0.142319,-1.479096 0.206859,-0.722814 0.508708,-1.422408 0.875811,-2.078527 1.375343,-2.458141 2.650834,-3.667688 4.547312,-5.863249 1.319051,-1.260541 2.582396,-2.582084 3.957153,-3.78163 3.729179,-3.253898 7.345774,-5.915726 11.566407,-8.542455 4.543777,-2.827838 8.715733,-5.026272 13.660294,-7.027905 1.546569,-0.626072 3.166384,-1.053255 4.749577,-1.579882 0.51641,-0.05098 1.066895,-0.344307 1.549238,-0.152929 0.989105,0.392447 0.307262,2.693437 0.243401,2.937193 -0.529918,2.022707 -1.483738,3.996003 -2.641518,5.724292 -0.825745,1.232639 -1.818238,2.344999 -2.72736,3.517497 -1.284322,1.252674 -2.481455,2.601454 -3.852961,3.758018 -3.439791,2.900716 -7.170893,5.242172 -11.175658,7.286911 -4.376337,2.23446 -8.019089,3.808528 -12.853186,4.635814 -1.526585,0.261257 -3.094274,0.142598 -4.641411,0.213905 -0.485455,-0.06652 -3.594103,0.152129 -3.648171,-1.501752 -0.0613,-1.874915 2.453034,-4.148266 3.48736,-4.962418 3.187729,-2.50915 7.556581,-4.567376 11.07223,-6.415778 2.330971,-1.06713 4.639829,-2.183947 6.99291,-3.201389 3.269056,-1.413495 9.66808,-3.947057 13.17977,-5.141881 1.272948,-0.43311 2.578251,-0.764916 3.873132,-1.127222 0.576067,-0.161179 1.185986,-0.215056 1.73903,-0.443047 0.182104,-0.07507 0.264748,-0.291723 0.397123,-0.437581 -0.0448,0.292967 -0.0071,0.611273 -0.134414,0.878905 -0.593161,1.246763 -2.173724,3.055921 -2.999209,3.954165 -3.250053,3.536527 -6.920079,6.648707 -10.927242,9.299874 -1.792465,0.99199 -3.532832,2.084591 -5.377394,2.975983 -2.010272,0.971464 -4.070892,1.846474 -6.170885,2.604743 -4.396625,1.587552 -8.186066,2.581421 -12.832075,3.00083 -3.414426,0.308232 -4.629388,0.05385 -7.604961,-0.303821 -0.127804,-0.501714 -0.529043,-1.008315 -0.383414,-1.505149 0.497775,-1.698231 3.559949,-4.854985 4.532107,-5.746725 3.150479,-2.889871 6.825648,-5.399991 10.506905,-7.534369 2.29591,-1.331162 4.701838,-2.462825 7.052756,-3.694238 2.459509,-1.089259 4.88548,-2.257636 7.378527,-3.267777 5.996492,-2.429673 5.496013,-2.017935 10.785161,-3.538108 0.433174,-0.124497 0.851038,-0.299492 1.285826,-0.418225 0.129074,-0.03525 0.399408,-0.175727 0.399209,-0.04192 -4.26e-4,0.416728 -0.267261,0.789442 -0.40089,1.184168 -0.358335,0.575801 -0.677637,1.177805 -1.074998,1.727396 -2.946632,4.075505 -7.175279,7.556807 -11.515929,10.035528 -1.562174,0.89208 -3.219061,1.607002 -4.828593,2.410507 -4.246182,1.760938 -6.642903,2.855411 -11.041701,4.269571 -3.027109,0.973178 -5.807279,1.687663 -8.929411,2.124477 -0.810862,0.113447 -1.631947,0.1432 -2.45015,0.173384 -0.328005,0.01209 -0.655715,-0.03115 -0.983574,-0.04672 -0.139745,-0.110049 -0.362002,-0.161725 -0.419233,-0.33014 -0.235929,-0.694283 0.24086,-1.872074 0.488384,-2.384259 1.353266,-2.80021 3.611269,-5.022366 5.808536,-7.155922 1.23933,-1.038762 2.442669,-2.122044 3.717986,-3.116291 1.50509,-1.173385 3.055906,-2.287979 4.618828,-3.383173 6.137398,-4.300678 12.549634,-8.244145 19.339783,-11.432182 0.763724,-0.315628 1.527445,-0.631252 2.291168,-0.946881 0.126125,-0.24708 0.170933,-0.557058 0.378374,-0.74124 0.07707,-0.06843 0.270015,0.08555 0.246982,0.186004 -0.12114,0.52833 -0.382993,1.016922 -0.633065,1.49783 -1.048125,2.015644 -1.919581,3.119459 -3.256279,5.047677 -0.874569,1.059947 -1.68839,2.17309 -2.623711,3.179834 -2.142046,2.30563 -4.956891,4.807955 -7.58514,6.510283 -3.265321,2.11496 -6.975306,3.766271 -10.69553,4.879709 -1.92603,0.57645 -3.92277,0.882853 -5.884154,1.324279 -3.971386,0.476528 -6.16773,0.951263 -10.049521,0.707009 -0.775138,-0.04877 -1.546229,-0.21693 -2.284577,-0.457883 -0.307324,-0.100291 -0.693285,-0.243398 -0.799715,-0.548651 -0.402537,-1.154529 1.112347,-2.589435 1.548364,-3.188113 0.886461,-0.806614 1.723957,-1.670556 2.659381,-2.419834 2.457077,-1.968124 6.84823,-4.878215 9.380067,-6.421693 2.163678,-1.319038 4.354904,-2.595599 6.58708,-3.795076 5.93103,-3.187093 8.662093,-4.290431 14.762358,-7.037129 5.229119,-2.16577 7.024091,-3.032114 12.131233,-4.734374 1.230782,-0.410231 2.491124,-0.725863 3.733866,-1.098298 0.326831,-0.09795 0.664401,-0.454814 0.974618,-0.312771 0.914576,0.418763 -0.345821,3.237146 -0.250124,3.007273 -0.367304,0.926561 -0.700735,1.867267 -1.101906,2.779671 -0.999506,2.273228 -2.226997,4.73288 -3.640914,6.77229 -0.812062,1.171307 -1.666243,2.326798 -2.66442,3.344166 -2.7476,2.800431 -4.03211,3.149832 -7.494586,5.031626 -1.658949,0.604446 -3.285339,1.307108 -4.976844,1.813342 -3.571269,1.068819 -7.570688,1.797037 -11.274817,2.17278 -3.045266,0.308914 -6.029974,0.412751 -9.064156,-8.16e-4 -0.744075,-0.101465 -1.45474,-0.373503 -2.182111,-0.560256 -0.282049,-0.193561 -0.772215,-0.246684 -0.846148,-0.580679 -0.210267,-0.949885 1.360335,-3.077716 1.711228,-3.464442 0.806609,-0.888979 1.736726,-1.661738 2.671549,-2.414741 3.438314,-2.769569 4.788398,-3.399961 8.721989,-5.802936 1.950491,-1.0607 3.880795,-2.159386 5.851469,-3.182093 3.628434,-1.883019 8.879394,-4.422187 12.669984,-6.00648 1.595766,-0.666955 3.267103,-1.143617 4.859235,-1.81921 0.620305,-0.263211 1.136936,-0.739359 1.762229,-0.990488 0.115881,-0.04654 0.230616,0.09588 0.345928,0.143813 -0.183906,0.440179 -0.326774,0.899842 -0.551717,1.320524 -0.697658,1.304775 -2.018237,3.147095 -2.888109,4.239976 -1.60676,2.018692 -3.516119,4.145433 -5.45404,5.834751 -1.208205,1.053216 -2.530768,1.967569 -3.796151,2.951357 -3.904214,2.529678 -5.608964,3.798201 -9.885515,5.863743 -1.822647,0.880329 -3.683081,1.693472 -5.591056,2.369226 -2.874433,1.018047 -7.032678,1.974506 -10.106077,2.349911 -1.26074,0.153997 -2.536971,0.128467 -3.805457,0.192697 -0.855209,-0.07491 -1.714848,-0.109955 -2.565624,-0.224717 -0.375886,-0.05071 -0.757213,-0.119707 -1.105262,-0.270444 -0.173531,-0.07516 -0.416425,-0.198537 -0.414235,-0.387632 0.0047,-0.401125 0.215002,-0.785783 0.431737,-1.123344 0.797942,-1.242771 2.322079,-2.543693 3.330708,-3.505565 2.814784,-2.308392 3.423299,-2.892388 6.593626,-5.089694 1.479067,-1.025118 2.979558,-2.020736 4.508759,-2.969443 4.616391,-2.864014 9.442621,-5.371028 14.292833,-7.809045 1.087582,-0.516222 2.168474,-1.046788 3.26275,-1.548675 0.643932,-0.295336 1.325144,-0.510913 1.951105,-0.842643 0.1563,-0.08283 0.314338,-0.215538 0.365298,-0.384929 0.05933,-0.197184 -0.03853,-0.410099 -0.06464,-0.614354 -0.03542,-0.276955 0.227602,2.212852 -0.24706,0.800367 -0.205613,0.296291 -0.39691,0.60305 -0.616845,0.888872 -1.200018,1.559525 -2.61674,2.969248 -4.127019,4.226213 -0.747345,0.621998 -1.509256,1.228969 -2.305619,1.786833 -0.906001,0.634666 -1.864165,1.1914 -2.796247,1.787099 -1.083852,0.575438 -2.146974,1.191752 -3.251553,1.726319 -4.276282,2.069538 -8.822663,3.660405 -13.561675,4.196266 -0.71821,0.08121 -1.443414,0.07901 -2.16512,0.118512 -0.395659,-0.05662 -0.789367,-0.129105 -1.18697,-0.169839 -0.148455,-0.0152 -0.318207,0.07655 -0.447689,0.0026 -0.111746,-0.06403 -0.136766,-0.224712 -0.161095,-0.351186 -0.160565,-0.834668 0.359577,-1.577259 0.780275,-2.235064 0.341186,-0.366669 0.653427,-0.762583 1.023562,-1.100004 1.196861,-1.091091 2.621826,-2.04528 3.996085,-2.875343 3.749679,-2.264836 7.726272,-4.140587 11.765683,-5.822358 4.067849,-1.612229 5.06414,-2.091633 9.084885,-3.381652 0.907459,-0.291148 1.830076,-0.533243 2.750392,-0.780766 0.7008,-0.188482 1.413504,-0.331461 2.112342,-0.527083 0.230863,-0.06463 0.526376,-0.06333 0.673357,-0.252713 0.13805,-0.177886 0.03053,-0.449296 0.04578,-0.673946 -0.0088,0.117394 0.02644,0.246885 -0.02618,0.352174 -0.320163,0.640419 -1.247582,1.701656 -1.655612,2.147065 -1.807614,1.973246 -3.835368,3.730519 -5.936137,5.382567 -2.352321,1.6985 -3.283315,2.479327 -5.839795,3.886067 -0.987969,0.543643 -2.01308,1.018309 -3.039554,1.485202 -1.049125,0.477191 -2.105288,0.942532 -3.18492,1.345978 -2.299476,0.859293 -3.140532,0.990598 -5.426506,1.532144 -0.542621,0.07313 -1.084454,0.152359 -1.627861,0.219391 -0.17367,0.02141 -0.348142,0.03793 -0.522947,0.04591 -0.07331,0.0034 -0.180195,0.0497 -0.219814,-0.01205 -0.07269,-0.113322 -0.05526,-0.267078 -0.04536,-0.401346 0.04446,-0.603201 0.212206,-0.69994 0.550174,-1.252751 0.229966,-0.275822 0.4428,-0.56688 0.689899,-0.827466 0.713914,-0.752889 1.508808,-1.404588 2.345596,-2.016797 2.159453,-1.579904 4.495133,-2.901619 6.820099,-4.216173 2.912156,-1.570294 3.72922,-2.050061 6.748134,-3.514228 1.106699,-0.536746 2.221134,-1.058066 3.345213,-1.557391 0.857947,-0.381109 1.855202,-0.511427 2.599644,-1.083371 0.43282,-0.332534 0.07336,-1.229343 0.659951,-1.498552 -0.341082,0.322711 -0.668675,0.660299 -1.023242,0.968131 -0.519749,0.451238 -1.055726,0.883847 -1.59807,1.307662 -3.066933,2.396654 -6.348083,4.507275 -9.864172,6.18764 -1.945192,0.865671 -3.244631,1.544065 -5.26676,2.097521 -0.493989,0.135206 -1.01729,0.132529 -1.516489,0.247009 -0.18414,0.04224 -0.358879,0.125384 -0.522112,0.220497 -0.102939,0.05998 -0.263935,0.357827 -0.266004,0.238709 -0.0041,-0.239859 0.172322,-0.447775 0.258483,-0.671666 0.439613,-0.785241 0.539474,-1.02123 1.104611,-1.770249 1.181642,-1.566122 2.663419,-2.865219 4.178886,-4.096606 1.357067,-1.093888 2.728309,-2.166972 4.130663,-3.202653 0.374286,-0.276417 0.752724,-0.547224 1.132958,-0.815405 0.259523,-0.18304 0.55437,-0.321093 0.786185,-0.538164 0.03639,-0.03406 -0.04713,-0.08787 -0.07072,-0.131803 -0.159885,-0.416191 -0.29469,-0.842907 -0.479657,-1.248578 -0.0158,-0.03466 -0.01755,0.07663 -0.04102,0.106613 -0.120597,0.153912 -0.253177,0.298291 -0.387533,0.440352 -0.715875,0.756915 -1.491886,1.456843 -2.32639,2.081118 -0.302153,0.202404 -0.594157,0.420849 -0.906457,0.607214 -0.820577,0.489682 -0.756277,0.372039 -1.552813,0.73148 -0.09361,0.04224 -0.271955,0.04562 -0.270082,0.1483 0.0029,0.154598 0.186359,0.246791 0.279538,0.370186 -0.01623,0.169938 -0.03245,0.339874 -0.04869,0.509807 0.0013,-0.04002 -0.01468,-0.08447 0.0037,-0.119998 0.133922,-0.258256 0.44412,-0.579486 0.639637,-0.759542 0.592531,-0.545684 1.285053,-0.955511 1.997098,-1.324194 0.821276,-0.382916 1.661986,-0.776331 2.558653,-0.94468 1.198105,-0.120551 1.027622,-1.814927 -0.170483,-1.694379 z" /></g></svg>
