<?xml version="1.0" encoding="UTF-8" standalone="no"?>
<svg
   width="490"
   height="340"
   viewBox="0 0 490 340"
   version="1.1"
   id="svg48"
   sodipodi:docname="therapy-rose-gold.svg"
   xml:space="preserve"
   inkscape:version="1.2.2 (b0a8486541, 2022-12-01)"
   xmlns:inkscape="http://www.inkscape.org/namespaces/inkscape"
   xmlns:sodipodi="http://sodipodi.sourceforge.net/DTD/sodipodi-0.dtd"
   xmlns="http://www.w3.org/2000/svg"
   xmlns:svg="http://www.w3.org/2000/svg"><defs
     id="defs52"><inkscape:path-effect
       effect="fillet_chamfer"
       id="path-effect18748"
       is_visible="true"
       lpeversion="1"
       nodesatellites_param="F,0,0,1,0,3,0,1 @ F,0,0,1,0,3,0,1 @ F,0,1,1,0,2.2780145,0,1 @ F,0,1,1,0,2.2780145,0,1 @ F,0,0,1,0,3,0,1 @ F,0,0,1,0,3,0,1 @ F,0,0,1,0,3,0,1 @ F,0,0,1,0,3,0,1 @ F,0,0,1,0,3,0,1 @ F,0,0,1,0,3,0,1 @ F,0,0,1,0,3,0,1 @ F,0,0,1,0,3,0,1 @ F,0,0,1,0,3.2975459,0,1 @ F,0,0,1,0,1.4558732,0,1 @ F,0,0,1,0,3,0,1 @ F,0,0,1,0,3,0,1 @ F,0,0,1,0,3,0,1 @ F,0,0,1,0,3,0,1"
       unit="px"
       method="auto"
       mode="F"
       radius="3"
       chamfer_steps="1"
       flexible="false"
       use_knot_distance="true"
       apply_no_radius="true"
       apply_with_radius="true"
       only_selected="false"
       hide_knots="false" /><inkscape:path-effect
       effect="fillet_chamfer"
       id="path-effect9489"
       is_visible="true"
       lpeversion="1"
       nodesatellites_param="F,0,0,1,0,5.122691,0,1 @ F,0,0,1,0,3,0,1 @ F,0,0,1,0,3,0,1 @ F,0,0,1,0,0.67489659,0,1"
       unit="px"
       method="auto"
       mode="F"
       radius="0"
       chamfer_steps="1"
       flexible="false"
       use_knot_distance="true"
       apply_no_radius="true"
       apply_with_radius="true"
       only_selected="false"
       hide_knots="false" /><inkscape:path-effect
       effect="fillet_chamfer"
       id="path-effect4687"
       is_visible="true"
       lpeversion="1"
       nodesatellites_param="F,0,0,1,0,3,0,1 @ F,0,0,1,0,3,0,1 @ F,0,0,1,0,3,0,1 @ F,0,0,1,0,3,0,1 @ F,0,0,1,0,3,0,1"
       unit="px"
       method="auto"
       mode="F"
       radius="0"
       chamfer_steps="1"
       flexible="false"
       use_knot_distance="true"
       apply_no_radius="true"
       apply_with_radius="true"
       only_selected="false"
       hide_knots="false" /><inkscape:path-effect
       effect="fillet_chamfer"
       id="path-effect4685"
       is_visible="true"
       lpeversion="1"
       nodesatellites_param="F,0,0,1,0,3,0,1 @ F,0,0,1,0,3,0,1 @ F,0,0,1,0,3,0,1 @ F,0,0,1,0,3,0,1 @ F,0,0,1,0,3,0,1 @ F,0,0,1,0,3,0,1 @ F,0,0,1,0,3,0,1 @ F,0,0,1,0,3,0,1"
       unit="px"
       method="auto"
       mode="F"
       radius="0"
       chamfer_steps="1"
       flexible="false"
       use_knot_distance="true"
       apply_no_radius="true"
       apply_with_radius="true"
       only_selected="false"
       hide_knots="false" /><inkscape:path-effect
       effect="fillet_chamfer"
       id="path-effect4683"
       is_visible="true"
       lpeversion="1"
       nodesatellites_param="F,0,0,1,0,3,0,1 @ F,0,0,1,0,3,0,1 @ F,0,1,1,0,2.2780145,0,1 @ F,0,1,1,0,2.2780145,0,1 @ F,0,0,1,0,3,0,1 @ F,0,0,1,0,3,0,1 @ F,0,0,1,0,3,0,1 @ F,0,0,1,0,3,0,1 @ F,0,0,1,0,3,0,1 @ F,0,0,1,0,3,0,1 @ F,0,0,1,0,3,0,1 @ F,0,0,1,0,3,0,1 @ F,0,0,1,0,3.2975459,0,1 @ F,0,0,1,0,1.4558732,0,1 @ F,0,0,1,0,3,0,1 @ F,0,0,1,0,3,0,1 @ F,0,0,1,0,3,0,1 @ F,0,0,1,0,3,0,1"
       unit="px"
       method="auto"
       mode="F"
       radius="3"
       chamfer_steps="1"
       flexible="false"
       use_knot_distance="true"
       apply_no_radius="true"
       apply_with_radius="true"
       only_selected="false"
       hide_knots="false" /><inkscape:path-effect
       effect="fillet_chamfer"
       id="path-effect4681"
       is_visible="true"
       lpeversion="1"
       nodesatellites_param="F,0,0,1,0,2,0,1 @ F,0,0,1,0,2,0,1 @ F,0,0,1,0,2,0,1 @ F,0,0,1,0,2,0,1 @ F,0,0,1,0,2,0,1 @ F,0,0,1,0,2,0,1 @ F,0,0,1,0,2,0,1 @ F,0,0,1,0,2,0,1"
       unit="px"
       method="auto"
       mode="F"
       radius="2"
       chamfer_steps="1"
       flexible="false"
       use_knot_distance="true"
       apply_no_radius="true"
       apply_with_radius="true"
       only_selected="false"
       hide_knots="false" /></defs><sodipodi:namedview
     id="namedview50"
     pagecolor="#ffffff"
     bordercolor="#000000"
     borderopacity="0.25"
     inkscape:showpageshadow="2"
     inkscape:pageopacity="0.0"
     inkscape:pagecheckerboard="true"
     inkscape:deskcolor="#d1d1d1"
     showgrid="true"
     inkscape:zoom="1.2426858"
     inkscape:cx="223.70901"
     inkscape:cy="179.85238"
     inkscape:window-width="1443"
     inkscape:window-height="1236"
     inkscape:window-x="840"
     inkscape:window-y="505"
     inkscape:window-maximized="0"
     inkscape:current-layer="svg48" /><rect
     style="fill:#a0a4a6;stroke-width:2;stroke-linecap:round;stroke-linejoin:round;paint-order:fill markers stroke;fill-opacity:1"
     id="rect398"
     width="463.36154"
     height="285.53241"
     x="-19.757267"
     y="67.184074"
     ry="79.284195"
     transform="rotate(-10.010446)" /><g
     id="g8928"
     style="stroke:#8f9193;stroke-opacity:1"><rect
       style="fill:#a0a4a6;fill-opacity:1;stroke:#8f9193;stroke-width:2.38237;stroke-linecap:round;stroke-linejoin:round;stroke-dasharray:none;stroke-opacity:1;paint-order:fill markers stroke"
       id="rect16515"
       width="60.86816"
       height="34.097885"
       x="212.98409"
       y="210.81676"
       rx="0.099760555"
       ry="0.099724621" /><rect
       style="fill:#a0a4a6;fill-opacity:1;stroke:#8f9193;stroke-width:2.38237;stroke-linecap:round;stroke-linejoin:round;stroke-dasharray:none;stroke-opacity:1;paint-order:fill markers stroke"
       id="rect16453"
       width="60.868164"
       height="18.126808"
       x="212.98409"
       y="186.99731"
       rx="0.099760555"
       ry="0.099724621" /><rect
       style="fill:none;stroke:#8f9193;stroke-width:2.38237;stroke-linecap:round;stroke-linejoin:round;stroke-dasharray:none;stroke-opacity:1;paint-order:fill markers stroke"
       id="rect3181"
       width="136.58549"
       height="75.861938"
       x="207.67595"
       y="180.58372" /><rect
       style="fill:#a0a4a6;fill-opacity:1;stroke:#8f9193;stroke-width:2.38237;stroke-linecap:round;stroke-linejoin:round;stroke-dasharray:none;stroke-opacity:1;paint-order:fill markers stroke"
       id="rect16519"
       width="60.783405"
       height="33.973179"
       x="278.88208"
       y="210.68585" /><rect
       style="fill:#a0a4a6;fill-opacity:1;stroke:#8f9193;stroke-width:2.38237;stroke-linecap:round;stroke-linejoin:round;stroke-dasharray:none;stroke-opacity:1;paint-order:fill markers stroke"
       id="rect16511"
       width="60.783424"
       height="18.126808"
       x="278.88208"
       y="186.86642" /><path
       style="fill:#8d545d;fill-opacity:1;stroke:#8f9193;stroke-width:2.38237;stroke-linecap:round;stroke-linejoin:round;stroke-dasharray:none;stroke-opacity:1;paint-order:fill markers stroke"
       d="m 301.55199,195.92983 h 15.44364"
       id="path16513" /><rect
       style="fill:none;stroke:#8f9193;stroke-width:2.38237;stroke-linecap:round;stroke-linejoin:round;stroke-dasharray:none;stroke-opacity:1;paint-order:fill markers stroke"
       id="rect3111"
       width="69.460327"
       height="69.935707"
       x="369.85858"
       y="61.568123" /><rect
       style="fill:none;stroke:#8f9193;stroke-width:2.38237;stroke-linecap:round;stroke-linejoin:round;stroke-dasharray:none;stroke-opacity:1;paint-order:fill markers stroke"
       id="rect3113"
       width="57.891579"
       height="55.58297"
       x="375.64294"
       y="68.744492" /><rect
       style="fill:none;stroke:#8f9193;stroke-width:2.38237;stroke-linecap:round;stroke-linejoin:round;stroke-dasharray:none;stroke-opacity:1;paint-order:fill markers stroke"
       id="rect3115"
       width="69.460327"
       height="69.935707"
       x="143.58139"
       y="60.596382" /><rect
       style="fill:none;stroke:#8f9193;stroke-width:2.38237;stroke-linecap:round;stroke-linejoin:round;stroke-dasharray:none;stroke-opacity:1;paint-order:fill markers stroke"
       id="rect3117"
       width="52.958912"
       height="52.939835"
       x="151.83212"
       y="69.094322" /><path
       style="fill:#8d545d;fill-opacity:1;stroke:#8f9193;stroke-width:2.38237;stroke-linecap:round;stroke-linejoin:round;stroke-dasharray:none;stroke-opacity:1;paint-order:fill markers stroke"
       d="m 235.69634,196.06073 h 15.44364"
       id="path16509" /><rect
       style="fill:none;stroke:#8f9193;stroke-width:2.38237;stroke-linecap:round;stroke-linejoin:round;stroke-dasharray:none;stroke-opacity:1;paint-order:fill markers stroke"
       id="rect3207"
       width="52.849346"
       height="47.174091"
       x="300.40445"
       y="60.466591" /><rect
       style="fill:none;stroke:#8f9193;stroke-width:2.38237;stroke-linecap:round;stroke-linejoin:round;stroke-dasharray:none;stroke-opacity:1;paint-order:fill markers stroke"
       id="rect3211"
       width="40.389744"
       height="36.052471"
       x="306.63428"
       y="66.027397" /><path
       style="fill:none;fill-opacity:1;stroke:#8f9193;stroke-width:2.38237;stroke-linecap:round;stroke-linejoin:round;stroke-dasharray:none;stroke-opacity:1;paint-order:fill markers stroke"
       d="m 268.31179,179.86384 h 16.32358 c 0,0 8.38711,-20.57818 7.44116,-27.76079 -0.94595,-7.18261 -7.36637,-8.68345 -7.36637,-12.75433 0,-4.07087 4.85067,-8.39858 4.85067,-8.39858 h -25.58525 c 0,0 5.08071,4.57277 5.08071,8.79689 0,4.22411 -6.61386,6.05184 -7.59618,13.15222 -0.98232,7.10037 6.85168,26.96459 6.85168,26.96459 z"
       id="path17649"
       sodipodi:nodetypes="cczzcczzc" /><path
       style="fill:none;fill-opacity:1;stroke:#8f9193;stroke-width:2.38237;stroke-linecap:round;stroke-linejoin:round;stroke-dasharray:none;stroke-opacity:1;paint-order:fill markers stroke"
       d="m 317.3063,180.11249 h 11.6411 c 0,0 5.98122,-14.67524 5.30663,-19.79749 -0.67461,-5.12225 -5.25331,-6.19256 -5.25331,-9.09569 0,-2.90314 3.45924,-5.98942 3.45924,-5.98942 h -18.24601 c 0,0 3.62329,3.26106 3.62329,6.27347 0,3.01241 -4.71664,4.31584 -5.41718,9.37944 -0.70053,5.0636 4.88624,19.22969 4.88624,19.22969 z"
       id="path20935"
       sodipodi:nodetypes="cczzcczzc" /><path
       style="fill:#a0a4a6;fill-opacity:1;stroke:#8f9193;stroke-width:2.38237;stroke-linecap:round;stroke-linejoin:round;stroke-dasharray:none;stroke-opacity:1;paint-order:fill markers stroke"
       d="m 255.04475,180.19404 h 10.10493 c 0,0 5.19194,-12.73869 4.60637,-17.185 -0.58559,-4.44632 -4.56007,-5.37539 -4.56007,-7.89543 0,-2.52002 3.00275,-5.19904 3.00275,-5.19904 h -15.83826 c 0,0 3.14515,2.83072 3.14515,5.44562 0,2.61488 -4.09422,3.74632 -4.70233,8.14173 -0.60809,4.3954 4.24146,16.69212 4.24146,16.69212 z"
       id="path20937"
       sodipodi:nodetypes="cczzcczzc" /></g><g
     id="g8910"><path
       style="fill:#034874;fill-opacity:1;stroke:none;stroke-width:1.19119;stroke-linecap:round;stroke-linejoin:round;stroke-opacity:1;paint-order:fill markers stroke"
       d="m 65.004273,210.81752 1.861949,19.65802 a 1.8524219,1.8524219 131.78306 0 1 -1.811091,2.0268 l -4.59581,0.0821 a 2.0638896,2.0638896 134.87756 0 0 -2.026846,2.03553 l -1.013948,74.64363 a 1.9727173,1.9727173 45.384776 0 0 1.972835,1.99952 l 225.271368,-0.0342 a 2.0330781,2.0330781 135.46122 0 0 2.0325,-2.00004 l 1.21529,-74.77457 a 1.9885821,1.9885821 45.767112 0 0 -1.96739,-2.02079 l -45.13488,-0.47511 a 2.2879537,2.2879537 41.761217 0 1 -2.24642,-2.0058 l -2.18566,-17.59589 a 2.2844829,2.2844829 41.718111 0 0 -2.24645,-2.00279 L 66.815602,208.84447 a 1.8030966,1.8030966 132.55307 0 0 -1.811329,1.97305 z"
       id="path3055"
       sodipodi:nodetypes="ccccccccc"
       inkscape:path-effect="#path-effect4681"
       inkscape:original-d="m 64.815683,208.82643 2.239129,23.6402 -8.595172,0.1535 -1.068278,78.64327 229.271368,-0.0348 1.28029,-78.77405 -49.13466,-0.51721 -2.67872,-21.56539 z" /><path
       style="fill:#057dcd;fill-opacity:1;stroke:none;stroke-width:1.19119;stroke-linecap:round;stroke-linejoin:round;stroke-opacity:1;paint-order:fill markers stroke"
       d="m 82.589763,211.88809 2.114926,17.23825 a 3.3905583,3.3905583 41.502724 0 0 3.365325,2.97767 h 23.644066 a 2.2780145,2.2780145 45 0 1 2.27801,2.27801 v 24.54264 a 2.2780145,2.2780145 135 0 1 -2.27801,2.27801 2.8182102,2.8182102 48.826457 0 1 -2.62386,-3 l 0,-18.45591 a 3,3 45 0 0 -3,-3 H 87.06178 a 3.0000062,3.0000062 135.00006 0 0 -3.000006,3 l -1.43e-4,68.51664 a 2.9999982,2.9999982 45.000102 0 0 2.999994,3 l 196.629395,3e-4 a 3.0629086,3.0629086 135.59456 0 0 3.06225,-2.99935 l 1.52132,-73.29627 a 2.9144982,2.9144982 45.360814 0 0 -2.93765,-2.97488 l -22.70666,0.18525 a 3.0245741,3.0245741 134.76629 0 0 -2.9999,3.02447 v 38.5131 a 3,3 135 0 1 -3,3 H 117.1195 a 2.5300545,2.5300545 52.50264 0 1 -2.44379,-3.18511 l 0.10219,-0.38124 a 1.8975119,1.8975119 142.50264 0 1 1.83281,-1.40623 h 136.22091 a 3,3 135 0 0 3,-3 v -6.82546 a 3,3 45 0 0 -3,-3 h -8.2538 a 3.3201376,3.3201376 42.100242 0 1 -3.30314,-2.98464 l -4.42349,-43.55204 a 3.3306708,3.3306708 42.190505 0 0 -3.30313,-2.99409 L 85.224423,208.91987 a 2.6460156,2.6460156 131.59299 0 0 -2.63466,2.96822 z"
       id="path3057"
       inkscape:path-effect="#path-effect4683"
       inkscape:original-d="m 82.224438,208.91042 2.845576,23.19359 h 28.922076 v 29.09866 h -4.90187 V 236.74676 H 84.06178 l -1.55e-4,74.51664 202.629395,3e-4 1.64582,-79.29497 -28.70646,0.23419 v 44.5131 H 113.82195 l 1.33289,-4.97258 h 140.67678 v -12.82546 h -14.2538 l -5.02977,-49.52132 z"
       sodipodi:nodetypes="ccccccccccccccccccc" /><polygon
       points="116.44513,300.7165 102.27977,291.05829 94.07919,300.7165 98.01545,321.09568 102.52261,337.19269 129.85255,323.31263 151.85851,321.32065 146.06358,297.49711 "
       fill="#a0616a"
       id="polygon2"
       transform="matrix(-0.4378474,0,0,0.43768966,290.29254,112.5596)"
       style="fill:#bd727d;fill-opacity:1" /><polygon
       points="224.61691,262.08371 137.69316,298.78486 149.28299,323.89615 227.8363,302.00425 349.52957,336.77378 332.7887,254.35717 296.08755,263.37146 "
       fill="#2f2e41"
       id="polygon4"
       transform="matrix(-0.4378474,0,0,0.43768966,290.29254,112.5596)"
       style="fill:#132337;fill-opacity:1" /><path
       d="m 246.48452,243.79839 -6.21976,-0.48397 7.91129,-16.70701 c 0,0 3.66498,-1.29371 4.22882,2.73497 0.56384,4.02869 -4.24543,31.30676 -5.65503,31.30676 -1.40961,0 -6.13921,-2.75835 -6.13921,-2.75835 l 7.00159,-13.24694 -1.12768,-0.84546 c 0,0 -2e-5,10e-6 -2e-5,10e-6 z"
       fill="#2f2e41"
       id="path6"
       style="stroke-width:0.437768;fill:#132337;fill-opacity:1" /><polygon
       points="353.63568,153.68697 374.23984,153.04311 382.61026,182.66155 346.55301,177.51052 "
       fill="#a0616a"
       id="polygon12"
       transform="matrix(-0.4378474,0,0,0.43768966,290.29254,112.5596)"
       style="fill:#a6646e;fill-opacity:1" /><path
       d="m 124.70645,188.80258 14.65989,-0.56365 4.54538,9.3425 7.01339,41.38501 -36.7907,8.31367 c 0,0 -2.25537,-46.21839 2.81921,-52.70023 5.07458,-6.48185 7.75284,-5.7773 7.75284,-5.7773 z"
       fill="#e6e6e6"
       id="path16"
       style="stroke-width:0.437768" /><path
       id="uuid-254ec3aa-232a-4bd5-bde7-2c67cbebf779-57"
       d="m 167.64156,156.39366 c 0.61109,-3.26235 2.79033,-5.59155 4.86719,-5.20244 2.07686,0.3891 3.26456,3.34883 2.65281,6.61226 -0.22649,1.30695 -0.76278,2.54069 -1.56402,3.59798 l -2.76386,13.78998 -5.45239,-1.10647 2.41549,-13.77018 c -0.36427,-1.2759 -0.4175,-2.62047 -0.15522,-3.92113 z"
       fill="#a0616a"
       style="fill:#bd727d;fill-opacity:1;stroke-width:0.437768" /><polygon
       points="363.04163,212.16091 373.16721,182.77419 304.78848,169.29909 285.57205,111.50288 264.03894,116.59649 285.64078,201.97655 "
       fill="#e6e6e6"
       id="polygon19"
       transform="matrix(-0.4378474,0,0,0.43768966,290.29254,112.5596)" /><path
       d="m 115.82593,242.20737 c 0,0 -5.63842,13.24553 0.56385,16.34554 6.20225,3.10002 23.19076,5.63639 27.38295,0 4.19221,-5.63639 5.6018,-31.56377 5.6018,-31.56377 l 13.53221,18.88191 7.61188,-4.79093 c 0,0 -9.02148,-31.8456 -16.63334,-33.53651 -7.61187,-1.69092 -27.91017,18.60008 -27.91017,18.60008 l -10.14916,16.06372 z"
       fill="#2f2e41"
       id="path27"
       style="stroke-width:0.437768;fill:#132337;fill-opacity:1" /><polygon
       points="267.75684,303.29203 249.08434,312.9502 251.01598,329.69108 286.42935,325.82779 290.93652,316.81348 289.64877,309.08695 292.22427,296.85321 281.27832,289.77054 "
       fill="#a0616a"
       id="polygon29"
       transform="matrix(-0.4378474,0,0,0.43768966,290.29254,112.5596)"
       style="fill:#bd727d;fill-opacity:1" /><path
       d="m 179.25816,254.04379 0.48416,-6.21753 16.71302,7.90844 c 0,0 1.29417,3.66367 -2.73597,4.2273 -4.03013,0.56364 -30.81263,0.56364 -30.81263,-0.84546 0,-1.40909 -0.73255,-8.62322 -0.73255,-8.62322 l 16.23821,4.67776 0.84577,-1.12729 z"
       fill="#2f2e41"
       id="path31"
       style="stroke-width:0.437768;fill:#132337;fill-opacity:1" /><path
       id="uuid-ed551467-fb37-4177-898a-a0ef2a16f86a-58"
       d="m 166.93755,232.8827 c 3.30404,0.32751 5.81317,2.29718 5.60431,4.3991 -0.20887,2.10192 -3.05634,3.53977 -6.3615,3.21169 -1.32208,-0.1129 -2.59787,-0.54076 -3.72064,-1.24764 l -13.98179,-1.56447 0.63298,-5.5255 13.93205,1.21923 c 1.24023,-0.4727 2.57569,-0.64156 3.8946,-0.49241 z"
       fill="#a0616a"
       style="fill:#bd727d;fill-opacity:1;stroke-width:0.437768" /><polygon
       points="400.4704,201.94515 372.06537,189.32532 352.74896,256.28879 293.51205,270.45417 296.73145,292.34607 383.65518,278.18073 "
       fill="#e6e6e6"
       id="polygon34"
       transform="matrix(-0.4378474,0,0,0.43768966,290.29254,112.5596)" /><ellipse
       cx="-132.08949"
       cy="170.9716"
       fill="#a0616a"
       id="circle40"
       transform="scale(-1,1)"
       style="fill:#bd727d;fill-opacity:1;stroke-width:0.437768"
       rx="11.980823"
       ry="11.976506" /><path
       d="m 131.13332,154.87001 c 0.34667,0.2023 0.81103,-0.10373 0.9222,-0.48934 0.11116,-0.38559 -0.0183,-0.79498 -0.14673,-1.17517 -0.21549,-0.63798 -0.43096,-1.27596 -0.64643,-1.91394 -0.45848,-1.3574 -0.94506,-2.76225 -1.93796,-3.79541 -1.49865,-1.5594 -3.88033,-1.95609 -6.02433,-1.6687 -2.75332,0.36907 -5.4699,1.85943 -6.7501,4.32393 -1.28022,2.46449 -0.73519,5.90335 1.57808,7.44094 -3.2969,3.77744 -4.44615,7.98727 -4.26467,12.99704 0.18145,5.00978 5.64285,9.62041 9.20441,13.14959 0.79536,-0.48196 1.51843,-2.74065 1.08106,-3.56118 -0.43739,-0.82053 0.18927,-1.77114 -0.3524,-2.52693 -0.54167,-0.75581 -0.99485,0.44765 -0.44724,-0.30386 0.34557,-0.47421 -1.00313,-1.56516 -0.48948,-1.849 2.48444,-1.37281 3.31073,-4.46845 4.87112,-6.839 1.88213,-2.85934 5.10336,-4.79571 8.5123,-5.11696 1.87786,-0.17696 3.86129,0.14355 5.40049,1.23336 1.53922,1.0898 2.53569,3.03727 2.17876,4.8887 0.92439,-0.93824 1.38453,-2.31326 1.21097,-3.61864 -0.17357,-1.30542 -0.977,-2.51255 -2.11444,-3.17687 0.69162,-2.28631 0.0991,-4.91624 -1.50614,-6.68546 -1.60528,-1.76923 -8.11714,-1.4679 -10.46072,-1.00227 l 0.18126,-0.31083 c 0,0 -1e-5,0 -1e-5,0 z"
       fill="#2f2e41"
       id="path42"
       style="stroke-width:0.437768;fill:#132337;fill-opacity:1" /><path
       d="m 130.76937,163.61145 c -3.10401,0.33495 -5.34518,3.02273 -7.23766,5.50489 -1.09077,1.43067 -2.23336,3.01059 -2.20597,4.80921 0.0276,1.81844 1.24394,3.37815 1.8252,5.10148 0.9501,2.81685 0.0242,6.16823 -2.23755,8.09831 2.23479,0.42392 4.65063,-1.25111 5.03644,-3.492 0.44911,-2.60866 -1.52911,-5.12643 -1.29483,-7.76308 0.20641,-2.32292 2.03762,-4.11067 3.59443,-5.8475 1.5568,-1.73683 3.01892,-4.04158 2.30271,-6.26101 l 0.21724,-0.1503 c 0,0 -1e-5,0 -1e-5,0 z"
       fill="#2f2e41"
       id="path44"
       style="stroke-width:0.437768;fill:#132337;fill-opacity:1" /></g><g
     id="g8891"><path
       style="fill:#f9a826;fill-opacity:1;stroke:none;stroke-width:1.19119;stroke-linecap:round;stroke-linejoin:round;stroke-opacity:1;paint-order:fill markers stroke"
       d="m 72.090917,168.8987 -0.92081,148.57934 h 5.200786 v -148.5977 z"
       id="path3123"
       sodipodi:nodetypes="ccccc" /><path
       style="fill:#f9a826;fill-opacity:1;stroke:none;stroke-width:1.19119;stroke-linecap:round;stroke-linejoin:round;stroke-opacity:1;paint-order:fill markers stroke"
       d="m 48.742436,319.36257 0.126849,-3.34461 c 15.146458,-5.2604 31.627679,-5.82938 49.929279,0 v 3.34461 z"
       id="path3125"
       sodipodi:nodetypes="ccccc" /><path
       style="fill:#f9e8d0;fill-opacity:1;stroke:#ffedd6;stroke-width:1.19119;stroke-linecap:round;stroke-linejoin:round;stroke-opacity:1;paint-order:fill markers stroke"
       d="m 59.583864,127.4427 h 28.739818 l 8.9377,43.91277 H 50.279619 Z"
       id="path3119"
       sodipodi:nodetypes="ccccc" /><path
       style="fill:none;stroke:#ffeed6;stroke-width:1.19119;stroke-linecap:round;stroke-linejoin:round;stroke-opacity:1;paint-order:fill markers stroke"
       d="M 52.547236,162.72942 H 94.993765"
       id="path3121"
       sodipodi:nodetypes="cc" /></g><g
     id="g8885"><path
       style="fill:#034874;fill-opacity:1;stroke:none;stroke-width:1.19119;stroke-linecap:round;stroke-linejoin:round;stroke-opacity:1;paint-order:fill markers stroke"
       d="m 415.08326,310.00699 h 41.24868 a 2.9993833,2.9993833 134.99411 0 0 2.99938,-3 l -0.0199,-96.63614 a 2.9007086,2.9007086 44.024195 0 0 -2.9989,-2.89845 l -131.27692,4.44627 a 2.5427265,2.5427265 128.34396 0 0 -2.40673,3.04265 l 18.64488,92.70006 a 3.6319463,3.6319463 39.070932 0 0 3.59144,2.91566 l 64.21814,-0.54461 a 707.50994,707.50994 179.75705 0 1 5.99989,-0.0254 z"
       id="path1587"
       inkscape:path-effect="#path-effect4687"
       inkscape:original-d="m 412.08326,310.00699 h 47.24868 l -0.0211,-102.63614 -137.27348,4.64937 19.82798,98.58226 z"
       sodipodi:nodetypes="cccccc" /><path
       style="fill:#057dcd;fill-opacity:1;stroke:none;stroke-width:1.19119;stroke-linecap:round;stroke-linejoin:round;stroke-opacity:1;paint-order:fill markers stroke"
       d="m 316.65913,213.4238 19.44383,-0.65078 a 2.8933614,2.8933614 44.119691 0 1 2.99013,2.89964 l -0.0959,35.13338 a 2.9918258,2.9918258 45.078164 0 0 2.99181,2.99999 l 48.67523,0 a 3.0713834,3.0713834 135.67362 0 0 3.07053,-2.99917 l 0.91164,-38.76317 a 3.0713834,3.0713834 135.67362 0 1 3.07053,-2.99917 h 18.23353 a 2.9920448,2.9920448 45.076067 0 1 2.99203,2.99999 l -0.25351,95.47784 a 3.0240158,3.0240158 134.92372 0 1 -3.00793,3.01594 l -99.83462,0.53094 a 2.9592845,2.9592845 45.086752 0 1 -2.97492,-2.98395 l 0.76421,-91.56123 a 3.1281062,3.1281062 134.28063 0 1 3.02336,-3.10025 z"
       id="path1583"
       inkscape:path-effect="#path-effect4685"
       inkscape:original-d="m 313.66081,213.52415 25.44047,-0.85148 -0.11223,41.13336 h 54.67523 l 1.0527,-44.76151 h 24.23353 l -0.26945,101.47782 -105.83454,0.56284 z"
       sodipodi:nodetypes="ccccccccc" /><path
       style="fill:#132337;fill-opacity:1;stroke:none;stroke-width:1.19119;stroke-linecap:round;stroke-linejoin:round;stroke-opacity:1;paint-order:fill markers stroke"
       d="m 330.76304,308.14822 c -3.11372,1.95538 -8.68609,4.31666 -14.28035,7.08592 -5.59425,2.76926 -6.09007,4.134 -4.51744,6.26955 1.57265,2.13554 16.55202,-0.42064 21.94664,-1.00835 5.39463,-0.58772 10.89483,-1.98218 10.36927,-6.52687 -2.08616,-11.53524 -6.89525,-10.23193 -13.51812,-5.82025 z"
       id="path3049"
       sodipodi:nodetypes="czzzcc" /><path
       style="fill:#132337;fill-opacity:1;stroke:none;stroke-width:1.19119;stroke-linecap:round;stroke-linejoin:round;stroke-opacity:1;paint-order:fill markers stroke"
       d="m 396.27548,257.78061 c -6.62293,1.62382 -15.79758,-0.36028 -24.76793,-2.05553 0,0 4.84715,10.53059 4.90358,20.50584 0.0564,9.97524 2.43311,40.42015 3.685,40.58254 -2.41637,1.79639 -6.32976,2.0459 -10.60714,1.9193 -4.74953,-19.77285 -11.15723,-39.69751 -13.94645,-59.29086 0.37698,17.09621 -9.72573,24.24687 -14.30641,56.69337 -1.36194,0.232 -3.78798,0.94351 -10.70531,-0.61637 0,0 2.66285,-78.92315 26.9215,-80.76932 24.25865,-1.84616 34.98466,2.8137 34.98466,2.8137 z"
       id="path3043"
       sodipodi:nodetypes="cczccccczcc" /><path
       style="fill:#132337;fill-opacity:1;stroke:none;stroke-width:1.19119;stroke-linecap:round;stroke-linejoin:round;stroke-opacity:1;paint-order:fill markers stroke"
       d="m 370.80616,308.02604 c -3.58855,1.84709 -9.84271,5.20579 -13.56619,7.21345 -3.72347,2.00766 -6.36398,5.21983 -5.55082,8.36749 0.81318,3.14767 10.69546,2.11124 18.03583,0.51993 7.34035,-1.59131 12.62199,-3.34699 12.25038,-6.81407 -0.37161,-3.46708 -1.12857,-7.07227 -3.50286,-9.13365 -4.2115,-2.44067 -4.07779,-2.00025 -7.66634,-0.15315 z"
       id="path3051"
       sodipodi:nodetypes="zzzzzcz" /><path
       style="fill:#132337;fill-opacity:1;stroke:none;stroke-width:1.19119;stroke-linecap:round;stroke-linejoin:round;stroke-dasharray:none;stroke-opacity:1;paint-order:fill markers stroke"
       d="m 374.92712,158.95979 c -2.53997,4.37254 -2.72852,14.28655 -2.32597,19.69822 0.40255,5.41167 2.79687,12.30462 3.34545,12.27736 0.54858,-0.0273 18.96818,-1.25157 23.90881,-7.77066 4.94063,-6.51908 4.88885,-18.01284 0.96356,-23.92099 -3.9253,-5.90814 -12.63255,-7.19567 -17.44029,-6.52315 -4.80774,0.67253 -5.91159,1.8667 -8.45156,6.23922 z"
       id="path6903"
       sodipodi:nodetypes="zzzzzzz" /><path
       style="fill:#a0616a;fill-opacity:1;stroke:none;stroke-width:1.19119;stroke-linecap:round;stroke-linejoin:round;stroke-opacity:1;paint-order:fill markers stroke"
       d="m 323.70324,214.17751 c -0.0963,-3.62593 2.80966,-5.71664 10.45949,-7.99515 7.64982,-2.27851 18.24522,-0.32858 25.82304,-3.05008 7.57784,-2.72151 14.11023,-15.8658 19.80269,-18.59451 5.69247,-2.72871 7.35571,-0.73096 7.23672,-2.06484 -0.11902,-1.33387 -0.14184,-2.57747 -0.47677,-5.18132 -2.12602,0.28511 -3.96185,0.92611 -7.78784,-2.86167 -3.82599,-3.78777 -1.22544,-16.03787 1.06116,-21.47398 2.28659,-5.4361 6.46479,-6.11919 12.02158,-4.87755 5.55679,1.24164 10.24731,6.47481 11.76835,11.84088 1.52103,5.36606 -8.74839,8.23154 -3.82376,16.33126 7.42927,14.93211 -1.32799,12.44727 -18.96799,22.10825 -5.92726,3.33757 -4.37896,9.37245 -11.87461,12.81207 -7.49565,3.43963 -25.80944,-1.92238 -31.9919,1.18934 -6.18247,3.11173 -3.67638,6.22949 -6.77499,6.6037 -3.09861,0.37422 -6.37893,-1.16048 -6.47517,-4.7864 z"
       id="path3053"
       sodipodi:nodetypes="zzzzzczzzzcczzzz" /><path
       style="fill:#e6e6e6;fill-opacity:1;stroke:none;stroke-width:1.19119;stroke-linecap:round;stroke-linejoin:round;stroke-dasharray:none;stroke-opacity:1;paint-order:fill markers stroke"
       d="m 386.45632,182.39504 c 0.30127,3.28411 1.56832,6.1299 5.42017,7.80261 5.30166,-3.98262 7.45164,-8.22441 9.74599,-12.45434 16.09458,17.73594 8.99434,27.76591 7.88754,37.55076 l -11.92976,23.11068 c -8.38348,0.36711 -16.28735,-0.40676 -23.56509,-2.67014 0,0 5.79548,-11.76303 5.76323,-18.03431 -0.0323,-6.27127 -5.50815,-11.02131 -5.49285,-17.14614 0.0154,-6.12484 4.13633,-16.05777 4.13633,-16.05777 z"
       id="path3269"
       sodipodi:nodetypes="cccccczzcc" /><path
       style="fill:#057dcd;fill-opacity:1;stroke:none;stroke-width:1.19119;stroke-linecap:round;stroke-linejoin:round;stroke-opacity:1;paint-order:fill markers stroke"
       d="m 392.83489,259.96341 0.19498,-47.91891 a 3.0122317,3.0122317 135.11657 0 1 3.01221,-2.99998 h 19.08674 a 3.0043475,3.0043475 44.958514 0 1 3.00434,3 l 0.12188,84.16315 c 5.4e-4,0.37274 -0.12601,0.40072 -0.28411,0.0632 -11.95697,-25.52834 -17.96803,-22.14773 -22.48396,-26.84849 -1.94901,-2.02878 -2.66359,-6.62978 -2.65208,-9.45894 z"
       id="path9485"
       inkscape:path-effect="#path-effect9489"
       inkscape:original-d="m 392.81405,265.08606 0.22803,-56.04154 h 25.08674 l 0.1272,87.83805 c -14.66231,-31.6187 -20.47111,-20.01197 -25.44197,-31.79651 z"
       sodipodi:nodetypes="ccccc" /><path
       style="fill:#a0616a;fill-opacity:1;stroke:none;stroke-width:1.19119;stroke-linecap:round;stroke-linejoin:round;stroke-opacity:1;paint-order:fill markers stroke"
       d="m 411.16451,188.88002 c 9.74475,6.27448 27.45382,12.36909 29.30425,18.55825 1.85044,6.18916 -6.40254,7.92798 -9.03396,7.85117 -2.63142,-0.0768 -12.74176,-0.92143 -17.0235,1.77823 -4.28174,2.69966 -1.41812,7.44137 -4.55994,8.23028 -3.14182,0.78892 -7.73372,-2.07535 -8.42473,-5.43145 -0.69101,-3.3561 1.66802,-5.83896 5.88235,-8.74417 4.21433,-2.90521 23.02838,-3.02078 19.64923,-4.57128 -3.37916,-1.55051 -17.79088,-10.35797 -23.30747,-12.27453 -4.66446,-3.55002 1.96709,-10.80878 7.51377,-5.3965 z"
       id="path9041"
       sodipodi:nodetypes="czzzzzzzcc" /><path
       style="fill:#132337;fill-opacity:1;stroke:none;stroke-width:1.19119;stroke-linecap:round;stroke-linejoin:round;stroke-dasharray:none;stroke-opacity:1;paint-order:fill markers stroke"
       d="m 371.42755,153.80589 c 0.65632,-4.53645 9.35183,-11.25498 17.70165,-11.37113 8.34983,-0.11612 15.97172,5.83404 18.60339,12.8329 2.63168,6.99887 -2.59629,11.82242 -0.85115,17.15296 1.74515,5.33054 7.76564,4.40348 8.57536,7.3214 0.80973,2.91793 0.13805,3.50477 -1.60413,4.53247 -1.51098,-0.71934 -2.682,-1.37942 -3.91218,-1.93298 -2.07824,1.45446 -2.682,6.08903 -5.63634,7.73899 -2.95434,1.64996 -6.9695,-1.03565 -9.87319,-4.83983 -2.90369,-3.80418 -2.04957,-10.35531 -0.87436,-14.71078 1.17521,-4.35546 5.18973,-5.28273 3.14213,-7.93211 -2.0476,-2.64937 -3.56391,2.66503 -6.06056,1.3645 -2.49665,-1.30053 0.32064,-4.24621 -2.40023,-5.57703 -2.72089,-1.33084 -7.05862,0.8148 -11.20424,1.654 -4.14563,0.83921 -6.26247,-1.69692 -5.60615,-6.23336 z"
       id="path3273"
       sodipodi:nodetypes="zzzzzcczzzzzzzz" /><path
       style="fill:#132337;fill-opacity:1;stroke-width:2;stroke-linecap:round;stroke-linejoin:round;paint-order:fill markers stroke"
       d="m 385.3028,181.88761 -1.89924,16.88788 -1.00689,40.64449 -9.71305,-2.47176 c 0,0 6.14381,-15.06394 6.03855,-20.21691 -0.10526,-5.15297 -2.74453,-9.33232 -2.74453,-9.33232 0,0 -1.86235,1.81336 -7.8864,4.32396 -6.02405,2.51059 -28.72907,1.22546 -28.72907,1.22546 l -4.48776,-8.4722 24.32941,-3.31158 c 6.75361,-6.91635 11.03354,-11.56001 18.73318,-17.68385 z"
       id="path3430"
       sodipodi:nodetypes="cccczczccccc" /><path
       style="fill:#132337;fill-opacity:1;stroke-width:2;stroke-linecap:round;stroke-linejoin:round;paint-order:fill markers stroke"
       d="m 398.17391,187.59385 1.02877,21.67959 13.05761,-0.11659 2.68831,-7.67933 9.87194,5.60297 -9.59816,1.07243 c 1.89247,2.99893 2.38398,5.0649 6.21922,8.243 5.90004,0.16024 10.41737,0.2368 16.3174,-1.17374 2.49831,-1.90277 3.86228,-4.6432 3.33806,-9.07022 -9.80829,-10.23982 -17.99455,-16.97919 -29.47948,-25.85282 z"
       id="path3486"
       sodipodi:nodetypes="ccccccccccc" /></g></svg>
